<svg width="272" height="218" viewBox="0 0 272 218" fill="none" xmlns="http://www.w3.org/2000/svg">
    <path fill-rule="evenodd" clip-rule="evenodd" d="M153.38 171.412C180.915 171.412 205.078 152.401 191.508 126.58C177.938 100.758 228.36 101.592 243.172 83.7464C261.235 61.9824 256.004 -30.4022 140.045 25.9199C121.47 34.9421 73.7653 16.6383 57.9413 25.7203C39.3149 36.4107 13.1087 58.3013 39.3149 80.7251C52.2236 91.7706 5.94292 120.44 26.213 146.12C45.9914 171.177 59.8558 147.29 89.9682 152.401C120.081 157.512 132.93 171.412 153.38 171.412Z" fill="#D9D3F3" fill-opacity="0.4"/>
    <path d="M121.42 126.489C121.42 126.489 127.76 123.721 130.127 121.795C132.494 119.869 135.437 115.085 135.437 115.085C135.437 115.085 167.76 136.751 188.835 133.66C193.691 132.948 203.153 129.952 203.757 124.674C205.404 110.26 182.608 106.577 187.587 99.2675C190.627 94.8059 200.069 101.446 200.069 101.446L239.233 119.326C239.233 119.326 225.703 150.282 192.869 151.522C152.479 153.048 121.42 126.489 121.42 126.489Z" fill="white"/>
    <path fill-rule="evenodd" clip-rule="evenodd" d="M90.3702 5.25906C90.0027 5.12512 88.0286 2.88162 85.5225 2.47329C84.3836 2.28774 85.4173 3.63368 84.1639 3.64579C80.431 3.68187 74.3648 3.03094 73.241 3.64579C72.4058 4.10131 74.2452 5.69263 73.241 5.76569C63.7667 6.45496 49.3129 15.2352 46.177 19.4949C45.179 20.8505 53.2505 18.5505 51.9645 19.2207C50.5211 19.9729 48.9203 24.8982 47.9631 28.7022C47.3005 31.3218 46.8833 34.693 46.7361 38.3604C46.6134 41.5266 46.6624 42.0505 47.1533 43.7817C47.7177 45.7179 48.1595 46.2873 48.9203 46.014C49.1902 45.9229 49.3129 45.5812 49.3129 44.9434C49.3129 44.4423 49.6074 42.9389 49.9756 41.5949L50.6136 39.1804L50.8836 40.1827C51.2272 41.3444 53.2396 44.9434 55.0557 47.5629C55.1536 47.702 55.575 47.5251 55.955 46.6726C56.3013 45.8957 56.1608 44.6546 56.749 43.3245C58.089 40.2946 60.7201 36.3552 63.7667 33.2018C68.2693 28.5414 69.7631 23.148 73.9838 18.8185C81.8605 10.7388 91.7463 5.76046 90.3702 5.25906Z" fill="white"/>
    <path fill-rule="evenodd" clip-rule="evenodd" d="M52.0758 20.321C50.8123 21.2641 48.9367 28.9134 48.9045 29.0412C48.2419 31.6608 47.6032 40.7575 48.2561 42.4797C48.909 44.202 50.7372 37.9936 50.7372 37.9936C50.7372 37.9936 53.5005 44.6536 55.9421 46.4796C56.0464 46.5576 53.0399 38.2398 52.0758 33.3841C50.8031 26.9743 52.7949 19.7843 52.0758 20.321Z" fill="#E7EAEE"/>
    <path fill-rule="evenodd" clip-rule="evenodd" d="M99.1714 154.284C101.527 153.805 105.503 152.14 107.025 151.57C108.547 151 113.185 144.922 114.853 138.065C116.056 133.009 116.67 125.811 115.982 124.603C115.881 124.432 115.51 121.159 116.498 122.228C118.694 124.603 121.302 128.333 129.529 121.65C131.77 119.829 134.74 117.48 133.958 115.403C131.77 109.593 122.285 97.8919 120.839 97.0056C119.11 95.9458 110.372 96.8464 97.3677 93.2838C82.6199 89.2436 76.4788 77.3465 70.7075 78.8952C66.0402 80.1476 54.8577 87.8442 52.0513 92.7182C38.802 115.728 54.8577 131.852 58.5142 136.483L62.0644 137.906L62.1872 140.844L62.3589 142.689C62.678 146.22 62.8007 146.539 64.5186 147.724C68.8134 150.753 77.2802 153.578 84.9372 154.58C88.4958 155.035 96.2264 154.876 99.1714 154.284Z" fill="white"/>
    <path fill-rule="evenodd" clip-rule="evenodd" d="M63.4605 139.769L63.6323 141.614C63.9513 145.145 64.074 145.463 65.7919 146.648C68.3255 148.435 72.3111 150.151 76.7259 151.464C79.7946 152.376 83.0707 153.093 86.2105 153.504C89.7691 153.96 97.4997 153.8 100.445 153.208C101.9 152.915 89.9266 144.184 82.8728 146.648C77.4558 148.54 64.6881 134.108 69.8793 130.338C75.7027 126.109 65.0317 109.427 64.6881 105.805C64.3445 102.184 62.9915 101.318 62.952 101.445C62.9125 101.572 62.9125 102.006 63.0187 103.05C63.4766 107.55 63.4605 139.769 63.4605 139.769Z" fill="#E7EAEE"/>
    <path fill-rule="evenodd" clip-rule="evenodd" d="M62.1826 104.771C62.6978 104.678 63.1968 104.99 63.2971 105.469C65.1493 114.301 72.984 120.28 86.9936 123.407C101.087 126.552 110.686 126.383 115.744 123.025C116.171 122.742 115.853 125.169 115.54 125.355C112.241 127.319 101.025 130.248 87.6401 127.6C70.5263 124.215 62.4908 110.858 61.4313 105.806C61.331 105.327 61.6674 104.864 62.1826 104.771Z" fill="#FFB61D"/>
    <path fill-rule="evenodd" clip-rule="evenodd" d="M55.0455 88.8369C55.5011 88.595 72.4989 106.676 95.8257 110.769C119.153 114.862 124.8 112.259 125.708 106.676C125.787 106.195 126.271 105.863 126.79 105.936C127.309 106.009 127.666 106.458 127.588 106.94C126.437 114.015 115.643 115.698 95.506 112.508C75.6215 109.359 61.9887 101.876 54.6925 90.0407C54.4319 89.6178 54.5899 89.0789 55.0455 88.8369Z" fill="#FFB61D"/>
    <path fill-rule="evenodd" clip-rule="evenodd" d="M152.952 87.8343C152.314 87.6293 151.627 87.1737 151.185 86.6498L150.449 85.807L153.05 83.4153C157.051 79.7707 160.118 76.035 162.769 71.5932C163.652 70.1126 165.886 65.1696 165.886 64.6913C165.886 64.5318 166.156 63.894 166.475 63.2334C166.966 62.2767 167.334 61.9123 168.389 61.3656C169.641 60.6822 171.064 60.4545 171.678 60.8417C172.856 61.5706 172.856 63.8712 171.678 67.8347C170.377 72.1854 168.634 75.3061 165.027 79.7935C164.462 80.4768 163.407 81.8208 162.646 82.7547C160.609 85.2603 159.284 86.4676 157.493 87.4015C155.726 88.3127 154.695 88.4266 152.952 87.8343ZM170.574 85.7807L172.341 86.5096C172.707 86.6666 176.749 88.4692 181.604 90.6345C189.432 94.1256 199.374 98.5595 199.435 98.5595C199.533 98.5595 199.993 97.5711 200.097 96.4183C200.343 93.9355 201.251 90.5642 202.306 88.218C202.797 87.1702 203.189 85.8607 203.189 85.7468C203.189 85.6948 202.79 85.5454 202.137 85.3009C201.36 85.0098 200.222 84.5838 198.968 84.0268C192.784 81.2706 180.685 75.6442 179.188 74.8014C177.715 74.0042 177.421 73.9359 177.421 74.4598C177.421 75.1431 175.924 78.3093 174.77 80.0177C174.157 80.9517 172.954 82.6373 172.095 83.7534L170.574 85.7807ZM199.018 94.4593C199.721 94.8379 198.502 95.3932 198.208 95.4844C196.474 95.621 194.432 95.3183 192.76 94.4138C191.885 93.8381 184.999 90.2871 180.43 87.9316C178.342 86.8547 176.738 86.0277 176.415 85.849C175.384 85.2795 174.403 84.6645 174.231 84.4823C173.715 83.8673 174.206 83.5939 175.654 83.7078C176.525 83.7763 197.498 93.6416 199.018 94.4593ZM99.2556 154.097C101.149 153.713 104.087 152.562 105.959 151.829C106.416 151.65 106.81 151.496 107.109 151.384C108.631 150.814 113.269 144.735 114.938 137.879C116.14 132.822 116.754 125.624 116.067 124.417C115.652 123.718 118.114 126.063 119.947 127.81L119.947 127.81L119.948 127.811L119.949 127.812L119.951 127.814C120.505 128.342 121.001 128.815 121.343 129.132C132.043 138.995 147.971 146.922 164.512 150.635C172.758 152.503 178.623 153.164 186.501 153.164C199.729 153.164 210.159 150.749 219.632 145.442C220.082 145.189 220.504 144.958 220.906 144.737C224.208 142.922 226.175 141.841 231.559 136.216C237.599 129.907 242.971 115.26 244.763 110.203C245.548 107.925 247.462 98.8652 247.462 96.6043C247.462 93.9275 246.456 92.6636 245.082 91.3652C242.652 89.1557 239.364 88.3584 236.64 89.3151L235.363 89.7707L234.971 88.5634C234.406 86.7411 233.228 85.2833 231.412 84.1899C228.713 82.5271 228.32 82.4132 225.89 82.4132C224.001 82.4132 223.485 82.5043 222.283 83.0282L220.884 83.6205L220.589 82.8004C220.025 81.1148 218.132 78.765 216.663 78.0853C215.36 77.4824 213.105 77.4272 211.534 77.698C208.098 78.2903 205.644 79.7709 204.637 81.8437C204.343 82.4815 203.975 82.9827 203.827 82.9827C203.705 82.9827 198.87 81.7294 193.103 79.3604C192.171 78.9766 191.294 78.6156 190.468 78.2756L190.368 78.2346L190.358 78.2306C180.001 73.9699 177.757 73.0464 177.961 71.8895C178.132 70.91 178.083 70.3633 177.789 69.5205C177.273 68.1082 176.684 67.721 175.016 67.721C174.204 67.721 173.889 67.721 173.801 67.5797C173.746 67.4903 173.781 67.3444 173.838 67.106C174.623 63.6209 174.598 61.6163 173.764 60.3407C173.2 59.4979 172.537 59.1562 171.015 58.9512C170.132 58.8373 169.715 58.9057 168.733 59.4068C168.07 59.7257 167.506 59.9535 167.457 59.9079C167.408 59.8624 167.58 58.6096 167.849 57.129C169.862 46.1724 168.307 36.7323 163.178 26.7098C163.129 26.6139 163.072 26.5004 163.007 26.3707C161.448 23.2634 155.178 10.7692 137.246 4.46484C136.434 4.17948 135.666 3.90356 134.928 3.63838C128.82 1.44394 124.76 -0.0149002 114.962 0.000238787C103.981 0.0172072 100.262 1.45807 93.0221 4.53318C92.0159 4.96597 91.1324 5.21654 91.0587 5.12542C90.9851 5.01153 90.5188 4.73819 90.0525 4.5104C89.5862 4.28261 88.58 3.71315 87.8438 3.25758C85.7332 1.93642 84.4325 1.38973 83.7699 1.5264C83.0091 1.70863 83.0091 2.30088 83.7699 2.57422C84.0889 2.68811 84.4571 3.07535 84.6043 3.46259C84.9233 4.28261 85.2915 4.37373 85.5123 3.69037C85.6105 3.43981 85.7578 3.25758 85.8314 3.30314C85.8593 3.31608 85.9526 3.35663 86.095 3.41851L86.0954 3.41869C86.4542 3.57456 87.1238 3.86554 87.8438 4.1915C88.85 4.64707 89.9544 5.12542 90.2489 5.23932C90.7888 5.42154 90.617 5.55822 88.2855 6.83382C79.1806 11.7996 71.769 19.5215 67.6215 28.314C66.9834 29.6352 66.419 30.4552 65.83 30.9108C64.3329 32.0725 61.3879 35.3754 60.7008 36.6738C60.3326 37.3799 59.5473 38.4733 58.9338 39.1111C58.3448 39.7489 57.7067 40.5689 57.4858 40.9106C57.2895 41.2751 57.0931 41.5256 57.0195 41.4801C56.9704 41.4117 57.0441 40.2956 57.2159 38.9972C57.584 35.9676 57.584 35.1704 57.2895 35.1021C56.8477 34.9882 56.2096 36.5827 55.9397 38.5644C55.7434 39.7717 55.6943 41.594 55.817 43.4618L55.9642 46.423L54.2218 43.8035C53.6216 42.9261 53.0306 42.0488 52.6115 41.4265C52.345 41.0309 52.148 40.7384 52.0621 40.6145C51.424 39.7489 51.0559 38.4505 51.3259 38.0177C51.4731 37.7672 51.4486 37.6533 51.2032 37.6533C50.6878 37.6533 49.6816 39.1794 49.019 40.9334C48.6999 41.7534 48.3809 42.4368 48.2827 42.4368C47.9146 42.4368 48.0864 34.282 48.479 31.6625C49.2889 26.4917 51.424 20.1137 52.3812 20.1137C52.5775 20.1137 52.7493 20.0226 52.7493 19.886C52.7493 19.4759 52.1112 19.6354 51.5958 20.1593C50.4424 21.321 48.9208 24.8972 47.9637 28.7013C47.301 31.3208 46.8838 34.692 46.7366 38.3594C46.6139 41.5256 46.663 42.0495 47.1538 43.7807C47.7182 45.7169 48.16 46.2863 48.9208 46.013C49.1907 45.9219 49.3135 45.5802 49.3135 44.9424C49.3135 44.4413 49.608 42.9379 49.9761 41.594L50.6142 39.1794L50.8841 40.1817C51.2277 41.3434 53.2401 44.9424 55.0562 47.5619C56.3078 49.3387 56.3324 49.4526 56.7496 52.2316C56.9704 53.8033 57.6576 57.6262 59.2528 63.507C60.6623 68.7029 68.5858 73.8573 70.5643 75.1444C70.825 75.314 70.9825 75.4164 71.0082 75.4429C71.2537 75.6935 71.5972 75.8302 71.7936 75.7618C72.0145 75.6935 72.1372 75.7846 72.1372 76.0352C72.1372 76.263 72.3089 76.5591 72.5053 76.6958C72.7507 76.8552 72.9225 77.4702 72.9716 78.5408C73.0943 80.682 74.8122 84.7822 76.1374 86.1261C76.9964 86.9917 78.7879 87.3561 80.7758 87.0372C82.0765 86.855 82.4446 86.7184 82.3219 86.445C82.2483 86.2628 82.7146 86.4906 83.3527 86.9461C90.8133 92.2308 98.3722 95.397 106.864 96.7637C110.152 97.2876 115.6 97.5837 118.57 97.3787C120.494 97.2619 121.008 97.2307 121.097 97.4105C121.13 97.4761 121.106 97.5698 121.073 97.6976C120.901 98.3354 121.122 98.7227 124.73 104.395C127.601 108.882 127.847 109.178 131.037 112.208C137.811 118.699 145.198 123.734 153.566 127.629C161.444 131.273 174.022 134.303 185.519 135.26C197.017 136.216 205.275 126.421 205.251 123.916C205.202 120.476 204.686 118.221 203.435 116.034C202.208 113.916 201.398 113.187 197.717 110.909C193.618 108.381 191.09 106.308 189.422 104.098C188.366 102.709 187.974 101.137 187.974 100.294C187.974 99.7477 188.734 98.5177 189.863 98.2671C190.894 98.0165 191.09 98.0393 192.244 98.5632C192.931 98.8593 194.723 99.6338 196.195 100.294C197.692 100.932 199.14 101.57 199.435 101.707C200.303 101.931 200.67 103.508 200.869 104.363L200.869 104.363C200.913 104.554 200.949 104.709 200.981 104.805C201.324 105.989 202.95 107.518 203.999 108.039C205.842 108.953 210.381 109.076 211.632 107.823C211.951 107.504 213.009 107.112 213.227 107.231C213.445 107.349 214.233 108.335 214.233 109.132C214.258 110.499 215.018 111.752 216.638 113.005C219.706 115.374 222.086 115.943 224.492 114.895C225.743 114.349 226.769 114.135 226.769 114.135C226.769 114.135 227.792 115.347 227.854 115.761C228.336 118.997 233.498 120.354 234.872 120.491C235.188 120.52 235.8 120.395 236.423 120.268C237.256 120.098 238.105 119.925 238.284 120.112C238.635 120.479 232.418 130.02 231.559 131.228C223.387 142.617 207.484 149.587 188.023 150.316C175.384 150.795 159.849 147.514 146.376 141.546C137.761 137.697 130.129 132.982 121.957 126.376C120.533 125.237 118.889 123.939 118.3 123.483C117.711 123.05 116.312 121.57 115.232 120.203C113.416 117.925 112.385 117.105 112.385 117.879C112.385 118.221 113.563 120.317 114.913 122.39C115.453 123.21 115.797 123.779 115.674 123.688C115.551 123.597 115.159 125.237 114.79 127.333C113.588 134.052 111.6 140.681 109.588 144.804C108.483 147.036 106.366 148.703 105.728 149.159C103.372 150.822 99.8446 151.569 94.9609 152.025C88.7764 152.594 79.6714 151.318 72.7262 148.904C70.8855 148.266 66.149 146.421 65.83 146.216C65.8108 146.198 65.7021 145.543 65.5503 144.628L65.5503 144.628C65.5075 144.37 65.4613 144.092 65.4128 143.802C64.5293 138.175 63.3022 116.513 63.3022 106.49C63.3022 102.344 63.2531 101.433 62.9586 101.433C62.3451 101.433 62.0996 101.98 61.8297 103.939C61.2161 108.404 61.3388 131.706 62.0015 136.603L62.1487 137.72L61.3143 137.287C60.0381 136.603 55.1789 132.025 53.4855 129.907C52.0519 128.095 51.1999 125.776 50.5624 124.041L50.5624 124.041C50.4142 123.637 50.2775 123.265 50.1479 122.938C46.5893 113.781 47.841 103.506 52.7493 94.2581C56.9214 86.3767 62.0506 82.0032 69.5603 79.8848C70.7874 79.5431 71.8672 79.1786 71.9899 79.0875C72.4562 78.6775 69.4621 78.8825 67.8178 79.3609C62.4678 80.887 56.8723 85.0555 53.0683 90.3857C47.7182 97.8571 45.3132 108.882 47.0065 118.289C47.3992 120.522 48.9944 125.351 49.4362 125.693C49.4753 125.729 49.6771 126.122 49.9822 126.716L49.9824 126.716C50.8265 128.36 52.4613 131.543 53.6328 132.982C55.0562 134.781 59.351 138.699 61.1425 139.906L62.2714 140.658L62.4432 142.503C62.7623 146.034 62.885 146.353 64.6029 147.537C68.8977 150.567 77.3645 153.391 85.0215 154.394C88.58 154.849 96.3107 154.69 99.2556 154.097ZM182.206 132.709C167.948 131.547 150.719 125.237 138.252 115.488C133 111.365 126.178 103.347 123.478 98.9052C122.914 97.994 122.496 97.5613 122.006 97.4474C121.49 97.3107 121.932 97.174 124.043 96.8551C132.951 95.4428 141.614 92.0033 148.609 87.1059L149.639 86.3997L149.934 87.0603C150.597 88.5409 153.149 90.0443 155.039 90.0443C155.799 90.0443 158.352 88.9737 159.898 87.9942L160.953 87.3337L161.812 88.1309C162.597 88.8598 162.745 88.9054 164.217 88.9054C165.911 88.9054 167.948 88.1992 169.076 87.197L169.69 86.6731L171.432 87.7437C172.365 88.3587 174.966 89.7026 177.2 90.7732C180.537 92.3677 184.071 94.2128 187.434 96.1262L187.973 96.4451L187.458 97.0829C186.918 97.7663 185.912 99.0646 185.912 101.046C185.912 103.279 188.413 107.289 193.201 110.044C196.962 112.208 203.435 116.464 203.189 122.686C203.16 123.438 202.257 125.306 201.054 126.991C200.269 128.062 198.085 129.656 196.097 130.59C192.71 132.162 186.746 133.073 182.206 132.709ZM51.35 30.4556C52.0126 30.5922 52.4544 30.7972 52.3562 30.8884C52.0372 31.1845 50.3438 31.0478 49.9511 30.6834C49.3376 30.1367 49.4848 29.7494 50.3438 29.59C50.7855 29.5216 51.4482 29.18 51.8163 28.8383C52.1844 28.4966 52.5035 28.3372 52.5035 28.4511C52.5035 28.7472 51.2764 29.795 50.6628 30.0228C50.2702 30.1822 50.3929 30.2506 51.35 30.4556ZM61.1181 30.8211C61.8298 30.4567 61.6826 30.2061 60.8482 30.32C60.0138 30.4339 59.9647 30.3428 60.5046 29.5683C60.7255 29.2722 60.8482 28.8394 60.7991 28.6116C60.7255 28.3155 60.5537 28.4522 60.161 29.1811C59.8665 29.705 59.4493 30.1378 59.253 30.1378C58.6394 30.1378 58.5903 30.5933 59.1793 30.7984C59.9401 31.0945 60.5291 31.0945 61.1181 30.8211ZM52.6265 18.3828C52.0375 18.474 50.1969 19.1573 48.5771 19.909C46.9328 20.6379 45.534 21.2529 45.4358 21.2302C42.9326 20.9796 46.4175 17.1072 52.7492 13.1438C58.811 9.33974 62.9094 7.33522 66.7134 6.31018C69.0939 5.67238 71.769 5.58127 72.5297 6.10518C72.947 6.4013 72.7997 6.42408 70.9836 6.44686C67.057 6.44686 62.5168 8.3147 55.1297 12.8932C51.3012 15.2622 46.8592 18.6562 46.8592 19.2029C46.8592 19.3168 47.5709 19.089 48.4544 18.7245C50.3441 17.9273 52.2829 17.5173 53.1419 17.6995C54.0499 17.9273 53.8536 18.2234 52.6265 18.3828ZM62.1242 20.3399C64.4311 19.9071 64.5293 19.8844 64.5293 19.6566C64.5293 19.5427 63.6458 19.4288 62.5414 19.3832L60.5535 19.3149L62.3942 17.3787C63.4004 16.3081 64.5784 15.2375 64.9956 14.987C65.9036 14.4403 65.9527 14.053 65.2164 13.8252L64.652 13.6658L65.2655 13.4608C65.6091 13.3469 66.2472 13.3013 66.6889 13.3697C67.3516 13.4608 67.4988 13.4152 67.4252 13.0963C67.3516 12.7774 67.0816 12.7091 65.8791 12.7319C62.3696 12.7774 60.8726 13.643 63.6212 14.053C64.382 14.1669 65.0201 14.3492 65.0201 14.463C65.0201 14.5542 64.8974 14.6453 64.7502 14.6453C64.2839 14.6453 60.3327 18.3582 59.8418 19.2693C59.081 20.6133 59.4982 20.8183 62.1242 20.3399ZM78.3217 11.5039C77.61 11.5494 77.4382 11.6633 77.4873 11.9822L77.4949 12.0286C77.5219 12.194 77.5377 12.2903 77.4998 12.3216C77.4469 12.3652 77.2898 12.2825 76.9136 12.0844L76.8492 12.0506C76.3829 11.8228 76.3339 11.7089 76.6038 11.5267C76.7756 11.39 77.2419 11.185 77.61 11.1166L78.2972 10.9572L77.7818 10.4561C77.5119 10.1599 77.3646 9.88659 77.4382 9.79548C77.6346 9.61325 80.0396 9.86382 80.3832 10.1144C80.5305 10.2283 80.7514 10.2055 80.8986 10.0688C81.2422 9.74992 81.7085 10.0005 81.7085 10.5016C81.7085 10.775 81.6348 10.7977 81.414 10.5927C81.2176 10.4105 81.0459 10.4105 80.825 10.57C80.6286 10.7294 80.4814 10.7294 80.3587 10.5472C80.2851 10.4333 79.8188 10.3194 79.3279 10.3194C78.8693 10.3194 78.6555 10.3194 78.6157 10.4026C78.5809 10.4753 78.6787 10.6113 78.8616 10.8661C79.2531 11.4338 79.2299 11.4355 78.3301 11.5032L78.3217 11.5039ZM74.5909 5.44272C74.5909 5.1466 74.2964 4.62269 73.9283 4.28101L73.2411 3.64321L76.9223 3.77988C78.9593 3.871 81.2662 4.076 82.0761 4.28101C82.8859 4.46324 83.8185 4.59991 84.1621 4.59991C84.6775 4.59991 84.5793 4.5088 83.6222 4.03045C81.9534 3.2332 79.8182 2.84596 75.7198 2.57262C70.8115 2.25372 68.3328 2.68651 68.7991 3.82544C68.8727 4.05323 69.2653 4.16712 69.8543 4.16712C71.0569 4.16712 73.0202 4.8277 73.6828 5.44272C74.3945 6.1033 74.5909 6.1033 74.5909 5.44272ZM62.6152 65.7635C64.6031 68.1324 67.229 70.8203 68.4561 71.7314C69.1924 72.2781 69.8305 72.7337 69.8795 72.7337C69.9041 72.7337 69.3642 71.6859 68.677 70.4103C65.9038 65.2851 64.284 60.1827 63.5233 54.3058C63.3515 53.0074 63.0815 51.9141 62.787 51.4585C62.198 50.5473 62.198 49.3629 62.8116 48.2467C63.1306 47.6545 63.3024 46.9028 63.3024 46.0827V44.8299L62.1244 45.9688C60.9709 47.085 59.8666 47.5406 59.8666 46.8572C59.8666 46.3561 61.6826 43.9416 62.6398 43.1899C63.4006 42.5976 63.4987 42.3926 63.7441 40.6159C63.9159 39.5453 64.3086 37.6547 64.6276 36.4018C64.9712 35.149 65.1675 34.0784 65.1185 34.0329C64.9467 33.8734 59.1794 40.0213 58.3941 41.9826C58.2216 42.4132 57.756 43.1671 57.3879 43.6227L56.7498 44.3831C56.7498 44.3831 56.948 45.4479 57.167 46.7861C57.3882 48.1381 57.4921 49.0675 57.5845 49.8953C57.7082 51.0027 57.8116 51.9282 58.1486 53.4402C58.5413 55.3081 58.934 56.9254 59.0321 57.0392C59.1058 57.1759 59.4248 58.2237 59.7438 59.3854C60.431 61.9594 61.5845 64.5106 62.6152 65.7635ZM162.205 87.3092L161.689 86.8309C161.689 86.8309 170.243 76.7438 171.776 73.0271C172.946 70.1906 173.634 69.3863 174.563 69.3863C175.082 69.3863 175.506 69.4964 175.703 69.7697C176.046 70.2481 176.377 70.8403 175.935 72.8676C175.199 76.1477 174.07 78.3117 170.684 82.9813C169.898 84.0519 168.892 85.2364 168.45 85.6464C167.42 86.5348 165.101 87.4459 163.751 87.6509C162.892 87.7648 162.646 87.7192 162.205 87.3092Z" fill="#57575B"/>
    <path d="M230.161 109.594C233.214 101.873 232.752 100.227 232.222 100.067C232.222 100.067 231.056 100.682 230.541 101.98C229.584 104.417 226.307 110.795 225.08 111.934C223.632 113.278 223.632 113.278 222.16 113.278C220.687 113.278 216.441 111.22 215.862 109.191C214.937 105.945 218.92 94.668 219.019 94.0302L218.356 93.5974C217.914 93.9847 212.168 110.157 204.613 105.943C203.748 105.461 201.913 103.187 201.766 101.98C200.948 98.472 204.7 86.2058 205.338 83.6862C205.91 81.4311 208.883 79.338 212.54 79.338C218.16 79.338 217.405 83.8977 219.922 85.5045C221.038 86.2165 222.871 84.9256 223.436 84.8277C226.602 84.281 227.815 84.9175 230.136 86.6272C231.927 87.9469 233.253 90.5587 234.712 91.479C235.522 91.9902 236.382 91.2914 236.664 91.1601C237.819 90.6221 240.296 91.0234 240.983 91.479C241.991 91.8867 244.459 94.0892 244.849 95.3702C246.617 101.176 241.036 114.047 238.929 116.462C235.441 120.459 227.107 117.315 230.161 109.594Z" fill="white"/>
    <path fill-rule="evenodd" clip-rule="evenodd" d="M89.0713 88.4356C95.7957 92.3763 102.729 94.9502 110.632 95.6564C116.865 96.2031 125.27 95.4514 131.307 93.6291C136.388 92.1029 143.259 87.8751 147.848 84.2989C156.757 77.3742 162.377 66.5578 164.831 55.0774C165.175 53.4601 165.699 49.3948 165.674 45.363C165.674 40.6706 163.449 27.8476 156.708 20.4539C142.804 5.20449 119.949 -1.66494 100.74 4.20454C93.8112 6.32186 86.4338 10.158 80.8628 15.1693C73.8439 21.5245 68.6656 30.1804 66.6041 39.0185C64.4445 48.3577 67.2538 59.5192 72.1376 68.6762C76.0397 75.9654 82.4696 84.5404 89.0713 88.4356ZM154.597 60.9088C149.983 73.7787 137.958 83.3913 122.84 86.3069C120.534 86.7397 118.938 86.8992 115.699 86.9447C113.416 87.0131 111.134 86.9903 110.668 86.9447C100.09 85.7603 92.0407 82.1385 84.6291 75.2593C81.3896 72.2298 80.0153 70.5897 78.0029 67.3551C74.837 62.23 73.1436 56.9909 72.6283 50.6812C70.8613 29.0643 87.525 11.0465 110.987 9.17862C120.19 8.4497 130.399 11.0692 138.154 16.1716C141.026 18.0623 146.229 22.8458 147.848 25.0781C148.511 25.9664 154.941 34.6906 156.07 39.7019C157.518 46.2166 156.953 54.3713 154.597 60.9088Z" fill="white"/>
    <path fill-rule="evenodd" clip-rule="evenodd" d="M165.682 45.3647C165.682 60.6539 157.89 77.3691 147.834 84.5077C143.036 87.9135 136.766 92.0375 131.306 93.6308C123.305 95.9657 110.631 95.6581 110.631 95.6581C110.631 95.6581 123.561 94.0538 128.353 92.264C142.093 87.1315 149.594 79.2529 154.225 71.6934C163.368 56.7715 165.682 44.9933 165.682 45.3647Z" fill="#E7EAEE"/>
    <path fill-rule="evenodd" clip-rule="evenodd" d="M110.913 84.2137C104.36 83.4392 97.8566 81.2752 92.6047 78.0634C89.4879 76.1728 84.7759 71.731 82.4935 68.5648C79.2295 64.0091 77.0698 59.1344 76.0145 53.8954C75.2537 50.0913 75.2783 44.2372 76.0391 40.8432C76.8244 37.3809 77.8306 34.7386 79.6221 31.3901C81.7082 27.5177 83.9169 24.6704 87.23 21.5953C92.8746 16.3562 99.4272 13.0306 107.231 11.4361C109.759 10.9349 118.913 10.5249 119.232 10.9122C119.306 11.026 119.797 11.3222 120.312 11.5727C120.828 11.8461 122.202 12.8028 123.331 13.7367C125.024 15.1034 125.785 15.969 127.257 18.1102C128.264 19.568 129.074 20.8892 129.074 21.0031C129.074 21.2536 129.859 21.7092 130.301 21.7092C130.914 21.7092 131.331 20.0008 131.454 16.994C131.528 15.3312 131.675 13.9645 131.773 13.9645C132.117 13.9645 135.896 15.9007 137.663 16.994C141.123 19.1352 144.584 22.142 147.136 25.2854C148.29 26.6977 148.461 27.0622 148.461 27.9278C148.461 28.725 148.707 29.34 149.468 30.5701C151.382 33.668 152.879 37.5631 153.787 41.8683C154.376 44.7611 154.376 50.228 153.762 53.2576C152.094 61.5945 147.136 69.8859 140.682 75.1478C135.209 79.5896 129.393 82.323 122.521 83.667C120.165 84.1453 113.097 84.4642 110.913 84.2137ZM93.366 68.6347C93.5868 68.4069 93.7341 68.0652 93.6605 67.9057C93.6383 67.8579 93.3311 67.7238 92.8813 67.5275C91.8327 67.07 90.0098 66.2746 89.2198 65.4457C86.0785 62.12 84.925 59.6371 84.2133 54.5119C83.5261 49.5234 84.1034 46.151 85.3422 40.7309C85.9465 38.0868 87.5527 35.9029 88.552 34.5441C89.2315 33.6202 89.6303 33.0778 89.243 33.0317C88.2858 32.895 88.1386 32.9634 87.1324 33.8517C84.9727 35.7652 83.9911 37.2913 82.9603 40.2298C81.3651 44.831 81.0568 57.2659 84.2133 62.8717C87.3698 68.4774 92.8015 69.2269 93.366 68.6347ZM128.264 49.498C127.847 53.0365 126.079 58.1538 124.018 60.3861C123.061 61.434 119.547 63.2335 116.582 62.869C113.717 62.517 111.477 61.2745 109.563 58.6094C107.919 56.3088 107.069 53.5162 106.495 49.9991C105.504 43.9258 109.833 36.8558 111.698 35.1019C113.588 33.3024 114.938 32.6646 116.655 32.6418C118.324 32.6418 119.404 32.9835 121.097 34.0996C124.19 36.1042 129.073 42.6218 128.264 49.498ZM95.1818 30.6628C95.6727 30.1389 95.7463 29.8884 95.599 28.9089C95.5009 27.9977 95.3045 27.6333 94.7892 27.246C93.8811 26.5627 92.7522 26.5627 91.9178 27.2916C91.3288 27.8155 91.2552 27.9977 91.3288 29.2506C91.4024 30.5945 91.4515 30.6856 92.2614 31.0956C93.3412 31.6423 94.3965 31.4829 95.1818 30.6628ZM110.495 16.605C106.078 19.5434 104.163 20.7507 102.176 21.8896C100.605 22.8007 100.114 22.8235 100.114 22.0035C100.114 21.5707 100.458 21.0923 101.341 20.3407L102.568 19.2928L100.188 18.9967C97.5127 18.6778 94.9113 17.9945 94.3468 17.4706C93.4143 16.5822 94.2241 16.3772 96.8746 16.8328C98.0526 17.015 100.335 17.2428 101.955 17.2883L104.9 17.4022L107.035 15.9672C111.722 12.8237 116.582 11.047 118.913 11.5937C120.361 11.9126 120.189 12.277 118.545 12.4593C116.655 12.6643 115.502 13.2565 110.495 16.605Z" fill="white"/>
    <path d="M116.802 59.7463C116.802 59.6324 116.949 59.5185 117.146 59.5185C117.342 59.5185 117.588 59.6324 117.661 59.7463C117.735 59.883 117.588 59.9741 117.318 59.9741C117.023 59.9741 116.802 59.883 116.802 59.7463Z" fill="white"/>
    <path d="M118.275 59.5416C118.275 59.2911 118.888 59.0633 119.576 59.0633C120.116 59.0861 120.116 59.0861 119.649 59.405C119.109 59.7922 118.275 59.8605 118.275 59.5416Z" fill="white"/>
    <path d="M114.471 58.9503C114.398 58.7681 114.299 58.4492 114.226 58.2669C114.152 58.0392 114.275 57.9253 114.594 57.9253C114.864 57.9253 115.085 58.0619 115.085 58.2442C115.085 58.4264 115.158 58.7225 115.232 58.9275C115.33 59.1781 115.257 59.292 114.987 59.292C114.766 59.292 114.52 59.1325 114.471 58.9503Z" fill="white"/>
    <path d="M115.772 58.3812C115.649 57.6978 115.919 57.4701 116.802 57.4701C117.072 57.4701 117.293 57.6978 117.391 58.0851C117.588 58.7457 117.269 59.0646 116.41 59.0646C116.017 59.0646 115.845 58.9051 115.772 58.3812Z" fill="white"/>
    <path d="M113.269 58.4945C112.802 58.1529 112.802 58.1529 113.318 58.1529C113.637 58.1529 113.858 58.2895 113.858 58.4945C113.858 58.9046 113.858 58.9046 113.269 58.4945Z" fill="white"/>
    <path d="M118.201 58.4729C117.882 58.1768 118.029 57.2884 118.422 57.1517C119.134 56.9012 119.453 57.0151 119.6 57.6073C119.698 57.949 119.747 58.2451 119.698 58.2679C119.502 58.4729 118.348 58.6096 118.201 58.4729Z" fill="white"/>
    <path d="M120.386 57.9934C120.312 57.9251 120.238 57.629 120.238 57.3556C120.238 56.9684 120.435 56.8089 121.024 56.695C121.539 56.6039 121.858 56.6495 122.005 56.8317C122.251 57.1962 122.251 57.6517 122.03 57.7656C121.588 57.9934 120.557 58.1301 120.386 57.9934Z" fill="white"/>
    <path d="M112.14 57.2887C112.14 57.0154 112.361 56.7876 112.68 56.7193C113.318 56.5598 113.294 56.5371 113.416 57.1293C113.465 57.471 113.343 57.6076 112.827 57.6532C112.287 57.7215 112.14 57.6304 112.14 57.2887Z" fill="white"/>
    <path d="M114.005 57.3115C113.661 56.9698 113.882 56.332 114.348 56.332C114.667 56.332 114.839 56.4915 114.839 56.7648C114.839 57.1976 114.275 57.5621 114.005 57.3115Z" fill="white"/>
    <path d="M115.477 56.6255C115.281 56.1927 115.698 55.8738 116.508 55.8738C116.876 55.8738 117.048 56.0105 117.048 56.3066C117.048 56.5572 116.827 56.785 116.508 56.8761C115.698 57.0583 115.649 57.0583 115.477 56.6255Z" fill="white"/>
    <path d="M122.569 56.5598C122.643 56.4459 122.766 56.332 122.839 56.332C122.913 56.332 122.889 56.4459 122.815 56.5598C122.741 56.6965 122.619 56.7876 122.545 56.7876C122.471 56.7876 122.496 56.6965 122.569 56.5598Z" fill="white"/>
    <path d="M117.686 56.17C117.49 55.7144 117.735 55.4866 118.52 55.3727C118.962 55.3272 119.158 55.4183 119.208 55.7372C119.379 56.4889 117.98 56.8989 117.686 56.17Z" fill="white"/>
    <path d="M111.796 55.7864C111.575 55.0348 111.624 54.9664 112.262 54.9664C112.606 54.9664 112.876 55.0575 112.876 55.1714C112.876 55.2853 112.949 55.5359 113.023 55.7181C113.097 55.9459 112.949 56.0826 112.532 56.1509C112.066 56.242 111.894 56.1509 111.796 55.7864Z" fill="white"/>
    <path d="M119.993 55.533C119.993 55.123 120.165 54.9408 120.631 54.8269C121.318 54.6675 121.711 54.9864 121.711 55.7153C121.711 56.0114 121.515 56.1025 120.852 56.1025C120.091 56.1025 119.993 56.0342 119.993 55.533Z" fill="white"/>
    <path d="M111.06 55.5327C110.986 55.3505 111.035 55.191 111.158 55.191C111.305 55.191 111.404 55.3505 111.404 55.5327C111.404 55.7149 111.354 55.8744 111.305 55.8744C111.256 55.8744 111.158 55.7149 111.06 55.5327Z" fill="white"/>
    <path d="M113.539 55.7171C113.195 55.421 113.391 54.7832 113.833 54.6693C114.103 54.6009 114.373 54.6237 114.447 54.692C114.741 54.9426 114.569 55.6032 114.201 55.7399C113.735 55.8993 113.735 55.8993 113.539 55.7171Z" fill="white"/>
    <path d="M122.3 55.5556C122.03 54.895 122.324 54.3939 123.011 54.3255C123.527 54.2572 123.674 54.3483 123.674 54.7128C123.674 55.4645 123.404 55.8745 122.913 55.8745C122.643 55.8745 122.373 55.7378 122.3 55.5556Z" fill="white"/>
    <path d="M115.257 55.2613C114.962 55.0107 115.06 54.5552 115.478 54.4185C115.944 54.259 116.926 54.7146 116.656 54.9652C116.312 55.2385 115.428 55.4435 115.257 55.2613Z" fill="white"/>
    <path d="M117.392 54.691C117.171 54.3721 117.956 53.8254 118.594 53.8254C118.889 53.8254 119.011 53.9621 118.962 54.2126C118.864 54.6682 117.612 55.0327 117.392 54.691Z" fill="white"/>
    <path d="M110.667 54.5317C110.667 54.4178 110.593 54.1673 110.52 53.9623C110.446 53.7572 110.471 53.5978 110.618 53.5978C110.937 53.5978 111.182 54.4634 110.888 54.6456C110.765 54.7139 110.667 54.6684 110.667 54.5317Z" fill="white"/>
    <path d="M111.33 54.0082C111.182 53.507 111.477 53.1426 112.041 53.1426C112.36 53.1426 112.679 54.0309 112.483 54.3271C112.213 54.7143 111.452 54.4865 111.33 54.0082Z" fill="white"/>
    <path d="M113.048 54.1212C112.68 53.7795 112.901 52.9595 113.392 52.8456C113.76 52.7545 113.956 52.8684 114.152 53.2784C114.3 53.5745 114.373 53.8706 114.324 53.9162C114.079 54.1212 113.195 54.2806 113.048 54.1212Z" fill="white"/>
    <path d="M119.674 54.124C119.355 53.8279 119.502 53.6457 120.238 53.3951C120.852 53.2129 121.024 53.2356 121.146 53.509C121.367 54.0557 120.14 54.5796 119.674 54.124Z" fill="white"/>
    <path d="M121.834 53.5953C121.589 53.2309 121.932 52.912 122.57 52.912C123.331 52.912 123.552 53.5042 122.865 53.6865C122.128 53.8687 122.006 53.8459 121.834 53.5953Z" fill="white"/>
    <path d="M123.919 53.0533C123.919 52.7116 124.361 52.3471 124.558 52.5294C124.729 52.6888 124.386 53.3722 124.14 53.3722C124.018 53.3722 123.919 53.2355 123.919 53.0533Z" fill="white"/>
    <path d="M110.349 52.7564C110.251 52.6881 110.177 52.392 110.202 52.1414C110.202 51.7086 110.226 51.7086 110.447 52.2097C110.692 52.7564 110.643 53.0298 110.349 52.7564Z" fill="white"/>
    <path d="M110.814 52.4119C110.594 51.6147 110.618 51.5464 111.256 51.5464C111.968 51.5464 112.41 52.3892 111.87 52.7081C111.305 53.027 110.986 52.9359 110.814 52.4119Z" fill="white"/>
    <path d="M119.256 52.8682C119.256 52.7999 119.379 52.4354 119.526 52.0254C119.87 51.1143 120.631 51.0687 120.802 51.9571C120.876 52.2988 120.901 52.5949 120.876 52.6177C120.753 52.7543 119.256 52.9593 119.256 52.8682Z" fill="white"/>
    <path d="M112.557 52.299C112.458 52.2306 112.385 51.9573 112.385 51.7067C112.385 51.3423 112.458 51.3195 112.753 51.5473C112.949 51.7067 113.121 51.9801 113.121 52.1395C113.121 52.4812 112.827 52.5723 112.557 52.299Z" fill="white"/>
    <path d="M121.391 51.8426C121.244 51.1365 121.563 50.8176 122.324 50.9087C122.692 50.9543 122.815 51.1593 122.815 51.6604C122.815 52.2299 122.717 52.3665 122.177 52.4121C121.637 52.4804 121.514 52.3665 121.391 51.8426Z" fill="white"/>
    <path d="M123.797 51.9342C123.478 51.0231 123.576 50.7497 124.239 50.6814C124.828 50.6131 124.901 50.6814 124.901 51.2737C124.901 51.7748 124.754 51.9798 124.386 52.0709C124.116 52.1392 123.846 52.0709 123.797 51.9342Z" fill="white"/>
    <path d="M109.98 50.6367C109.98 50.2039 110.029 50.0216 110.103 50.2494C110.152 50.4544 110.152 50.8189 110.103 51.0467C110.029 51.2517 109.98 51.0695 109.98 50.6367Z" fill="white"/>
    <path d="M110.593 50.9309C110.274 50.6575 110.421 49.7692 110.814 49.6325C111.379 49.4275 111.649 49.678 111.649 50.4297C111.649 50.9081 111.526 51.0903 111.207 51.0903C110.961 51.0903 110.667 51.022 110.593 50.9309Z" fill="white"/>
    <path d="M112.066 50.3164C111.968 49.9747 111.919 49.6103 112.017 49.542C112.262 49.3142 112.41 49.6786 112.336 50.3392L112.262 50.977L112.066 50.3164Z" fill="white"/>
    <path d="M119.993 50.1578C119.993 49.9072 120.116 49.7706 120.239 49.8389C120.386 49.9072 120.484 50.135 120.484 50.3172C120.484 50.4995 120.386 50.6361 120.239 50.6361C120.116 50.6361 119.993 50.4311 119.993 50.1578Z" fill="white"/>
    <path d="M121.097 50.4544C120.753 50.1128 121.023 49.4977 121.588 49.3611C122.3 49.2016 122.324 49.2016 122.545 49.8622C122.692 50.2722 122.594 50.3633 121.956 50.4544C121.563 50.5228 121.171 50.5 121.097 50.4544Z" fill="white"/>
    <path d="M123.355 50.0224C123.085 49.7946 123.158 49.0429 123.428 49.0429C123.576 49.0429 123.674 48.9518 123.674 48.8151C123.674 48.7012 123.527 48.5873 123.33 48.5873C122.913 48.5873 122.569 47.4712 122.913 47.1523C123.355 46.7422 123.846 47.175 124.14 48.2912C124.312 48.8834 124.484 49.5668 124.557 49.7946C124.655 50.0907 124.557 50.1818 124.091 50.1818C123.772 50.1818 123.428 50.1135 123.355 50.0224Z" fill="white"/>
    <path d="M124.681 48.8133C124.509 48.1299 124.067 46.7632 123.748 45.761C123.258 44.3031 123.208 43.9387 123.478 43.7792C123.65 43.6653 123.871 43.5742 123.945 43.5742C124.215 43.5742 125.196 48.2438 125.098 49.155L125.025 50.0661L124.681 48.8133Z" fill="white"/>
    <path d="M109.734 48.6997C109.734 48.3352 109.783 48.1985 109.857 48.4263C109.906 48.6313 109.906 48.9502 109.857 49.1097C109.783 49.2464 109.734 49.0869 109.734 48.6997Z" fill="white"/>
    <path d="M110.225 48.6556C110.324 47.8584 111.035 47.6761 111.232 48.4051C111.403 48.9973 111.452 48.929 110.716 49.1568C110.201 49.2934 110.152 49.2479 110.225 48.6556Z" fill="white"/>
    <path d="M120.582 48.4493C120.386 47.7888 120.803 47.4015 121.588 47.4926C122.177 47.561 122.398 48.5404 121.907 48.8366C121.294 49.201 120.729 49.0416 120.582 48.4493Z" fill="white"/>
    <path d="M111.649 48.2693C111.649 47.8821 111.772 47.6771 112.042 47.6771C112.287 47.6771 112.385 47.8365 112.336 48.1782C112.213 48.9071 111.649 48.9755 111.649 48.2693Z" fill="white"/>
    <path d="M109.465 47.3118C109.465 47.0612 109.538 46.9929 109.612 47.1751C109.686 47.3345 109.661 47.5396 109.587 47.6079C109.514 47.699 109.44 47.5623 109.465 47.3118Z" fill="white"/>
    <path d="M109.931 47.242C109.931 46.9003 110.078 46.7637 110.446 46.7637C110.79 46.7637 110.912 46.8776 110.863 47.1509C110.741 47.7432 109.931 47.8115 109.931 47.242Z" fill="white"/>
    <path d="M111.281 47.0386C111.109 46.6286 111.109 46.6286 111.845 46.4463C112.287 46.3097 112.385 46.378 112.385 46.7197C112.385 47.2664 111.502 47.5397 111.281 47.0386Z" fill="white"/>
    <path d="M120.164 46.7188C119.993 46.1494 120.312 45.8533 121.171 45.8533C121.588 45.8533 121.711 45.9899 121.711 46.4227C121.711 46.7644 121.563 46.9922 121.367 46.9922C121.171 46.9922 120.852 47.0605 120.655 47.1289C120.434 47.1972 120.263 47.0605 120.164 46.7188Z" fill="white"/>
    <path d="M122.3 46.1953C122.104 45.7397 122.398 45.3981 122.963 45.3981C123.306 45.3981 123.429 45.5575 123.429 45.9675C123.429 46.3775 123.306 46.537 122.938 46.537C122.668 46.537 122.374 46.3775 122.3 46.1953Z" fill="white"/>
    <path d="M109.686 45.8761C109.686 45.3977 110.25 44.8511 110.496 45.1016C110.594 45.17 110.668 45.4889 110.668 45.785C110.668 46.1494 110.52 46.3089 110.177 46.3089C109.858 46.3089 109.686 46.1494 109.686 45.8761Z" fill="white"/>
    <path d="M111.035 45.6028C110.839 45.0334 111.06 44.7828 111.894 44.6689C112.655 44.5778 112.9 45.3295 112.238 45.7851C111.6 46.2179 111.207 46.1495 111.035 45.6028Z" fill="white"/>
    <path d="M119.919 45.4646C119.747 45.3279 119.673 44.4851 119.821 44.4851C119.845 44.4851 120.213 44.394 120.655 44.2801C121.391 44.0751 121.44 44.0979 121.416 44.7129C121.391 45.1685 121.244 45.3963 120.876 45.4874C120.213 45.6468 120.115 45.6468 119.919 45.4646Z" fill="white"/>
    <path d="M119.012 44.94C119.012 44.7806 119.085 44.7122 119.184 44.7806C119.257 44.8717 119.257 45.0084 119.184 45.0995C119.085 45.1678 119.012 45.0995 119.012 44.94Z" fill="white"/>
    <path d="M121.76 44.5784C121.833 44.1911 122.594 43.6217 122.766 43.8039C122.84 43.8722 122.962 44.1456 123.036 44.4417C123.208 44.8973 123.134 44.9428 122.447 44.9428C121.858 44.9428 121.686 44.8517 121.76 44.5784Z" fill="white"/>
    <path d="M109.931 44.553C109.931 44.4391 110.053 44.2113 110.176 44.0291C110.372 43.7557 110.421 43.7785 110.421 44.2113C110.421 44.4846 110.323 44.7124 110.176 44.7124C110.053 44.7124 109.931 44.6441 109.931 44.553Z" fill="white"/>
    <path d="M110.667 44.055C110.667 43.4172 111.183 43.2122 111.576 43.6905C111.821 44.0322 111.821 44.1461 111.576 44.3056C111.06 44.6017 110.667 44.5106 110.667 44.055Z" fill="white"/>
    <path d="M118.128 43.7587C117.686 43.3031 117.686 43.2804 118.103 43.417C118.349 43.5081 118.668 43.5765 118.791 43.5765C118.913 43.5765 119.011 43.7359 119.011 43.9182C119.011 44.3965 118.668 44.3509 118.128 43.7587Z" fill="white"/>
    <path d="M112.851 43.7355C111.795 42.9838 111.648 41.2982 112.63 41.2982C113.292 41.2982 113.906 42.2549 113.808 43.1433C113.734 43.9633 113.44 44.1455 112.851 43.7355Z" fill="white"/>
    <path d="M119.575 43.871C119.673 43.8027 119.821 43.8027 119.919 43.871C119.993 43.9622 119.919 44.0305 119.747 44.0305C119.575 44.0305 119.502 43.9622 119.575 43.871Z" fill="white"/>
    <path d="M123.281 42.9829C123.355 42.7779 123.429 42.5729 123.429 42.5273C123.429 42.4818 123.551 42.4362 123.674 42.4362C123.821 42.4362 123.919 42.6412 123.919 42.8918C123.919 43.1651 123.748 43.3473 123.527 43.3473C123.257 43.3473 123.183 43.2335 123.281 42.9829Z" fill="white"/>
    <path d="M110.421 42.9153C110.421 42.3914 110.937 41.5258 111.231 41.5258C111.747 41.5258 111.379 42.9836 110.839 43.0747C110.618 43.1203 110.421 43.052 110.421 42.9153Z" fill="white"/>
    <path d="M115.944 42.6642L115.208 42.5047L115.87 42.3453C116.557 42.163 117.048 42.2997 117.048 42.687C117.048 42.9147 117.024 42.9147 115.944 42.6642Z" fill="white"/>
    <path d="M115.085 41.5711C115.085 40.6372 115.649 40.5005 116.165 41.3205C116.508 41.8672 116.533 41.9811 116.214 41.9811C116.018 41.9811 115.699 42.0494 115.478 42.1178C115.183 42.2317 115.085 42.095 115.085 41.5711Z" fill="white"/>
    <path d="M119.355 41.8884C118.251 41.4329 117.539 40.2256 117.539 38.7905C117.539 37.7655 117.637 37.5149 118.3 36.9455C118.717 36.581 119.134 36.2849 119.257 36.2849C119.797 36.2849 121.785 38.0388 122.447 39.1322L123.208 40.385L122.398 41.1823C121.466 42.0934 120.435 42.344 119.355 41.8884Z" fill="white"/>
    <path d="M114.226 41.2954C114.152 41.1815 114.201 41.0676 114.324 41.0676C114.471 41.0676 114.594 41.1815 114.594 41.2954C114.594 41.432 114.545 41.5232 114.495 41.5232C114.422 41.5232 114.299 41.432 114.226 41.2954Z" fill="white"/>
    <path d="M111.011 40.9315C111.084 40.7264 111.158 40.5214 111.158 40.4759C111.158 40.4303 111.379 40.3848 111.649 40.3848C112.262 40.3848 112.287 40.7492 111.673 41.0681C111.011 41.387 110.839 41.3642 111.011 40.9315Z" fill="white"/>
    <path d="M112.949 40.6597C112.385 40.5914 112.213 40.2953 112.581 40.0903C112.679 40.0219 113.121 39.908 113.563 39.8169C114.226 39.6803 114.348 39.7258 114.348 40.1131C114.348 40.5914 113.833 40.7964 112.949 40.6597Z" fill="white"/>
    <path d="M114.839 39.8873C114.839 39.6139 114.864 39.4545 114.913 39.5C114.938 39.5456 115.134 39.7734 115.306 40.0012C115.6 40.3201 115.576 40.3884 115.232 40.3884C114.987 40.3884 114.839 40.2062 114.839 39.8873Z" fill="white"/>
    <path d="M111.403 39.7267C111.403 39.5901 111.526 39.4306 111.649 39.3623C111.796 39.2939 111.894 39.3851 111.894 39.5673C111.894 39.7723 111.796 39.9317 111.649 39.9317C111.526 39.9317 111.403 39.8406 111.403 39.7267Z" fill="white"/>
    <path d="M112.311 39.3852C112.115 38.9296 113.857 38.4285 114.152 38.8613C114.373 39.2258 114.152 39.3852 113.219 39.5674C112.655 39.6813 112.409 39.6358 112.311 39.3852Z" fill="white"/>
    <path d="M114.619 38.6538C114.619 38.4033 114.692 38.3349 114.766 38.5172C114.839 38.6766 114.815 38.8816 114.741 38.9499C114.668 39.0411 114.594 38.9044 114.619 38.6538Z" fill="white"/>
    <path d="M112.532 38.2919C112.827 37.7907 113.686 36.9707 113.906 36.9707C114.152 36.9707 114.176 38.0413 113.931 38.178C113.808 38.2235 113.416 38.3374 113.048 38.4285C112.508 38.5424 112.385 38.5196 112.532 38.2919Z" fill="white"/>
    <path d="M114.496 37.7678C114.226 37.0844 114.348 36.7883 114.937 36.6972C115.551 36.5833 115.551 36.5833 115.158 37.2894C114.668 38.2006 114.692 38.2006 114.496 37.7678Z" fill="white"/>
    <path d="M114.349 36.3996C114.349 36.3541 114.839 36.0352 115.453 35.7163C116.189 35.3063 116.705 35.1696 117.073 35.2607C117.515 35.3974 117.392 35.4885 116.312 35.9669C115.109 36.468 114.349 36.6502 114.349 36.3996Z" fill="white"/>
    <path d="M127.969 16.2188C127.307 15.3304 125.908 13.8954 124.901 13.0298C123.895 12.1642 123.233 11.4581 123.429 11.4581C123.969 11.4581 128.092 12.5059 129.123 12.9159C129.982 13.2576 130.006 13.3032 129.785 14.0093C129.663 14.4193 129.564 15.4443 129.564 16.2871C129.564 17.1527 129.491 17.8361 129.393 17.8361C129.27 17.8361 128.656 17.1072 127.969 16.2188Z" fill="white"/>
    <path d="M78.027 85.2133C77.0208 84.7349 76.7999 84.4616 75.5238 82.1154C73.6831 78.7897 73.6341 78.0152 75.3765 79.9058C76.0637 80.6575 77.6589 82.2065 78.9105 83.3454C81.0456 85.2588 81.1438 85.3955 80.4321 85.3044C79.9167 85.236 79.7204 85.2816 79.8431 85.4638C80.1376 85.8738 79.205 85.7599 78.027 85.2133Z" fill="white"/>
    <path fill-rule="evenodd" clip-rule="evenodd" d="M119.155 126.715C118.951 126.266 119.178 125.749 119.662 125.56L120.191 125.351C125.332 123.31 128.282 122.083 130.287 120.136C132.292 118.189 132.532 115.328 132.909 113.588C133.012 113.11 134.177 113.949 134.692 114.045C135.207 114.141 135.54 114.606 135.437 115.084C134.984 117.176 133.764 119.171 131.801 121.065C129.844 122.952 126.055 124.975 120.4 127.186C119.916 127.375 119.359 127.164 119.155 126.715Z" fill="#57575B"/>
    <path fill-rule="evenodd" clip-rule="evenodd" d="M142.403 35.8282C142.854 35.579 143.437 35.7163 143.706 36.135C146.394 40.3266 147.834 45.1181 147.834 50.1033C147.834 65.2063 134.643 77.4496 118.371 77.4496C114.047 77.4496 109.854 76.584 106.013 74.9349C105.537 74.7303 103.737 73.1014 105.55 73.7639C107.362 74.4264 114.375 75.9134 118.422 75.9134C133.644 75.9134 144.412 64.2319 144.412 50.1033C144.412 45.438 142.403 41.297 142.072 37.0374C142.034 36.5436 141.952 36.0774 142.403 35.8282Z" fill="#57575B"/>
    <path fill-rule="evenodd" clip-rule="evenodd" d="M48.2753 102.593C48.6113 102.218 49.2106 101.462 49.6139 101.774C51.2684 103.053 53.034 104.535 54.9226 104.821C56.888 105.119 59.2195 105.119 61.9142 104.816C62.4353 104.757 62.9089 105.102 62.9719 105.586C63.035 106.069 62.6637 106.509 62.1426 106.567C59.281 106.889 56.7733 106.889 54.6165 106.562C52.3831 106.224 50.306 105.311 48.3973 103.835C47.994 103.523 47.9394 102.967 48.2753 102.593Z" fill="#57575B"/>
    <path d="M68.4554 71.7314C67.2283 70.8203 64.6023 68.1324 62.6145 65.7634C61.5837 64.5106 60.4303 61.9594 59.7431 59.3854C59.4241 58.2237 59.105 57.1759 59.0314 57.0392C58.9332 56.9253 58.5406 55.3081 58.1479 53.4402C57.5589 50.7979 57.6835 49.9467 57.1662 46.7861C56.9472 45.4479 56.749 44.3831 56.749 44.3831L57.3871 43.6226C57.7552 43.1671 58.2209 42.4132 58.3933 41.9826C59.1786 40.0213 64.9459 33.8734 65.1177 34.0329C65.1668 34.0784 64.9705 35.149 64.6269 36.4018C64.3078 37.6547 63.9152 39.5453 63.7434 40.6159C63.498 42.3926 63.3998 42.5976 62.639 43.1899C61.6819 43.9415 59.8658 46.3561 59.8658 46.8572C59.8658 47.5406 60.9702 47.085 62.1236 45.9688L63.3016 44.8299V46.0827C63.3016 46.9028 63.1298 47.6545 62.8108 48.2467C62.1973 49.3629 62.1973 50.5473 62.7863 51.4585C63.0808 51.9141 63.3507 53.0074 63.5225 54.3058C64.2833 60.1827 65.903 65.2851 68.6763 70.4103C69.3634 71.6859 69.9033 72.7337 69.8788 72.7337C69.8297 72.7337 69.1916 72.2781 68.4554 71.7314Z" fill="white"/>
    <path fill-rule="evenodd" clip-rule="evenodd" d="M170.574 85.7807L172.341 86.5096C172.707 86.6666 176.749 88.4692 181.604 90.6345C189.432 94.1256 199.374 98.5595 199.435 98.5595C199.533 98.5595 199.993 97.5711 200.097 96.4183C200.343 93.9355 201.251 90.5642 202.306 88.218C202.797 87.1702 203.19 85.8607 203.19 85.7468C203.19 85.6948 202.791 85.5454 202.137 85.3009C201.36 85.0098 200.222 84.5838 198.968 84.0268C192.784 81.2706 180.685 75.6442 179.188 74.8014C177.715 74.0042 177.421 73.9359 177.421 74.4598C177.421 75.1431 175.924 78.3093 174.77 80.0177C174.157 80.9517 172.954 82.6373 172.095 83.7534L170.574 85.7807ZM199.018 94.4593C199.722 94.8379 198.502 95.3932 198.208 95.4843C196.474 95.621 194.432 95.3183 192.76 94.4138C191.885 93.8381 184.999 90.2871 180.431 87.9316C178.342 86.8547 176.738 86.0277 176.415 85.849C175.384 85.2795 174.403 84.6645 174.231 84.4823C173.715 83.8673 174.206 83.5939 175.654 83.7078C176.525 83.7763 197.498 93.6416 199.018 94.4593Z" fill="white"/>
    <path d="M152.952 87.8343C152.314 87.6293 151.627 87.1737 151.185 86.6498L150.449 85.807L153.051 83.4153C157.051 79.7707 159.996 75.7876 162.646 71.3458C163.53 69.8652 166.156 63.894 166.475 63.2334C166.966 62.2767 167.334 61.9123 168.389 61.3656C169.641 60.6822 171.064 60.4545 171.678 60.8417C172.856 61.5706 172.856 63.8712 171.678 67.8347C170.377 72.1854 168.635 75.3061 165.027 79.7935C164.462 80.4768 163.407 81.8208 162.646 82.7547C160.609 85.2603 159.284 86.4676 157.493 87.4015C155.726 88.3127 154.695 88.4266 152.952 87.8343Z" fill="white"/>
    <path d="M162.204 87.3092L161.688 86.8309C161.688 86.8309 170.242 76.7438 171.775 73.027C172.945 70.1906 173.633 69.3863 174.562 69.3863C175.081 69.3863 175.505 69.4964 175.702 69.7697C176.045 70.2481 176.376 70.8403 175.935 72.8676C175.198 76.1477 174.069 78.3117 170.683 82.9813C169.897 84.0519 168.891 85.2364 168.449 85.6464C167.419 86.5348 165.1 87.4459 163.75 87.6509C162.891 87.7648 162.646 87.7192 162.204 87.3092Z" fill="white"/>
    <path fill-rule="evenodd" clip-rule="evenodd" d="M176.573 76.763C177.068 75.712 177.421 74.7954 177.421 74.4637C177.421 73.9398 177.715 74.0081 179.188 74.8054C180.685 75.6482 192.784 81.2745 198.968 84.0307C201.275 85.0557 203.189 85.6368 203.189 85.7507C203.189 85.8646 176.048 77.8773 176.573 76.763Z" fill="#E7EAEE"/>
    <path fill-rule="evenodd" clip-rule="evenodd" d="M92.6042 78.0631C89.4874 76.1725 84.7754 71.7307 82.493 68.5644C79.229 64.0087 77.0693 59.1341 76.014 53.895C75.2532 50.091 75.2778 44.2369 76.0386 40.8429C76.8239 37.3805 77.8301 34.7382 79.6217 31.3898C81.7077 27.5174 83.9164 24.6701 87.2296 21.595C90.4785 18.5794 76.0386 31.05 79.6217 53.3626C82.493 72.0604 94.8331 79.4262 92.6042 78.0631Z" fill="#E7EAEE"/>
    <path d="M86.2741 197.684V206.412H85.2514L80.4957 199.559H80.4105V206.412H79.3537V197.684H80.3764L85.1491 204.554H85.2344V197.684H86.2741ZM90.9116 206.548C90.3207 206.548 89.8022 206.407 89.3562 206.126C88.913 205.845 88.5664 205.451 88.3164 204.946C88.0692 204.44 87.9457 203.849 87.9457 203.173C87.9457 202.491 88.0692 201.896 88.3164 201.387C88.5664 200.879 88.913 200.484 89.3562 200.203C89.8022 199.922 90.3207 199.781 90.9116 199.781C91.5025 199.781 92.0195 199.922 92.4627 200.203C92.9087 200.484 93.2553 200.879 93.5025 201.387C93.7525 201.896 93.8775 202.491 93.8775 203.173C93.8775 203.849 93.7525 204.44 93.5025 204.946C93.2553 205.451 92.9087 205.845 92.4627 206.126C92.0195 206.407 91.5025 206.548 90.9116 206.548ZM90.9116 205.645C91.3604 205.645 91.7298 205.53 92.0195 205.299C92.3093 205.069 92.5238 204.767 92.663 204.392C92.8022 204.017 92.8718 203.61 92.8718 203.173C92.8718 202.735 92.8022 202.328 92.663 201.95C92.5238 201.572 92.3093 201.267 92.0195 201.034C91.7298 200.801 91.3604 200.684 90.9116 200.684C90.4627 200.684 90.0934 200.801 89.8036 201.034C89.5138 201.267 89.2994 201.572 89.1602 201.95C89.021 202.328 88.9513 202.735 88.9513 203.173C88.9513 203.61 89.021 204.017 89.1602 204.392C89.2994 204.767 89.5138 205.069 89.8036 205.299C90.0934 205.53 90.4627 205.645 90.9116 205.645ZM98.2592 199.866V200.718H94.8672V199.866H98.2592ZM95.8558 198.298H96.8615V204.537C96.8615 204.821 96.9027 205.034 96.9851 205.176C97.0703 205.315 97.1783 205.409 97.3089 205.457C97.4425 205.503 97.5831 205.525 97.7308 205.525C97.8416 205.525 97.9325 205.52 98.0036 205.508C98.0746 205.494 98.1314 205.483 98.174 205.474L98.3786 206.378C98.3104 206.403 98.2152 206.429 98.093 206.454C97.9709 206.483 97.8161 206.497 97.6286 206.497C97.3445 206.497 97.0661 206.436 96.7933 206.314C96.5234 206.191 96.299 206.005 96.12 205.755C95.9439 205.505 95.8558 205.19 95.8558 204.809V198.298ZM100.918 202.474V206.412H99.9126V197.684H100.918V200.889H101.004C101.157 200.551 101.387 200.282 101.694 200.084C102.004 199.882 102.415 199.781 102.93 199.781C103.376 199.781 103.766 199.87 104.102 200.049C104.437 200.226 104.697 200.497 104.881 200.863C105.069 201.227 105.163 201.69 105.163 202.253V206.412H104.157V202.321C104.157 201.801 104.022 201.399 103.752 201.115C103.485 200.828 103.114 200.684 102.64 200.684C102.31 200.684 102.015 200.754 101.754 200.893C101.495 201.032 101.29 201.235 101.14 201.503C100.992 201.77 100.918 202.093 100.918 202.474ZM107.002 206.412V199.866H108.008V206.412H107.002ZM107.514 198.775C107.318 198.775 107.149 198.709 107.007 198.575C106.868 198.441 106.798 198.281 106.798 198.093C106.798 197.906 106.868 197.745 107.007 197.612C107.149 197.478 107.318 197.412 107.514 197.412C107.71 197.412 107.877 197.478 108.017 197.612C108.159 197.745 108.23 197.906 108.23 198.093C108.23 198.281 108.159 198.441 108.017 198.575C107.877 198.709 107.71 198.775 107.514 198.775ZM110.856 202.474V206.412H109.85V199.866H110.822V200.889H110.907C111.06 200.557 111.293 200.289 111.606 200.088C111.918 199.883 112.322 199.781 112.816 199.781C113.259 199.781 113.647 199.872 113.979 200.054C114.312 200.233 114.57 200.505 114.755 200.872C114.94 201.235 115.032 201.696 115.032 202.253V206.412H114.026V202.321C114.026 201.807 113.893 201.406 113.626 201.119C113.359 200.829 112.992 200.684 112.526 200.684C112.205 200.684 111.918 200.754 111.665 200.893C111.415 201.032 111.218 201.235 111.073 201.503C110.928 201.77 110.856 202.093 110.856 202.474ZM119.512 209.003C119.026 209.003 118.608 208.94 118.259 208.815C117.909 208.693 117.618 208.531 117.385 208.329C117.155 208.13 116.972 207.917 116.836 207.69L117.637 207.128C117.728 207.247 117.843 207.383 117.982 207.537C118.121 207.693 118.311 207.828 118.553 207.941C118.797 208.058 119.117 208.116 119.512 208.116C120.04 208.116 120.476 207.988 120.82 207.733C121.164 207.477 121.336 207.076 121.336 206.531V205.201H121.25C121.176 205.321 121.071 205.468 120.935 205.645C120.801 205.818 120.608 205.973 120.355 206.109C120.105 206.243 119.767 206.309 119.341 206.309C118.813 206.309 118.338 206.184 117.918 205.934C117.5 205.684 117.169 205.321 116.925 204.843C116.684 204.366 116.563 203.787 116.563 203.105C116.563 202.434 116.681 201.851 116.917 201.353C117.152 200.853 117.48 200.467 117.901 200.194C118.321 199.919 118.807 199.781 119.358 199.781C119.784 199.781 120.123 199.852 120.373 199.994C120.625 200.133 120.819 200.292 120.952 200.471C121.088 200.647 121.194 200.792 121.267 200.906H121.37V199.866H122.341V206.599C122.341 207.162 122.213 207.619 121.958 207.971C121.705 208.326 121.364 208.586 120.935 208.751C120.509 208.919 120.034 209.003 119.512 209.003ZM119.478 205.406C119.881 205.406 120.222 205.314 120.5 205.129C120.779 204.944 120.99 204.679 121.135 204.332C121.28 203.985 121.353 203.571 121.353 203.088C121.353 202.616 121.282 202.2 121.14 201.839C120.998 201.478 120.787 201.196 120.509 200.991C120.23 200.787 119.887 200.684 119.478 200.684C119.051 200.684 118.696 200.792 118.412 201.008C118.131 201.224 117.919 201.514 117.777 201.878C117.638 202.241 117.569 202.645 117.569 203.088C117.569 203.542 117.64 203.944 117.782 204.294C117.926 204.64 118.14 204.913 118.421 205.112C118.705 205.308 119.057 205.406 119.478 205.406ZM130.404 199.866V200.718H127.012V199.866H130.404ZM128 198.298H129.006V204.537C129.006 204.821 129.047 205.034 129.13 205.176C129.215 205.315 129.323 205.409 129.453 205.457C129.587 205.503 129.728 205.525 129.875 205.525C129.986 205.525 130.077 205.52 130.148 205.508C130.219 205.494 130.276 205.483 130.319 205.474L130.523 206.378C130.455 206.403 130.36 206.429 130.238 206.454C130.115 206.483 129.961 206.497 129.773 206.497C129.489 206.497 129.211 206.436 128.938 206.314C128.668 206.191 128.444 206.005 128.265 205.755C128.088 205.505 128 205.19 128 204.809V198.298ZM134.505 206.548C133.914 206.548 133.396 206.407 132.95 206.126C132.507 205.845 132.16 205.451 131.91 204.946C131.663 204.44 131.539 203.849 131.539 203.173C131.539 202.491 131.663 201.896 131.91 201.387C132.16 200.879 132.507 200.484 132.95 200.203C133.396 199.922 133.914 199.781 134.505 199.781C135.096 199.781 135.613 199.922 136.056 200.203C136.502 200.484 136.849 200.879 137.096 201.387C137.346 201.896 137.471 202.491 137.471 203.173C137.471 203.849 137.346 204.44 137.096 204.946C136.849 205.451 136.502 205.845 136.056 206.126C135.613 206.407 135.096 206.548 134.505 206.548ZM134.505 205.645C134.954 205.645 135.324 205.53 135.613 205.299C135.903 205.069 136.118 204.767 136.257 204.392C136.396 204.017 136.466 203.61 136.466 203.173C136.466 202.735 136.396 202.328 136.257 201.95C136.118 201.572 135.903 201.267 135.613 201.034C135.324 200.801 134.954 200.684 134.505 200.684C134.056 200.684 133.687 200.801 133.397 201.034C133.108 201.267 132.893 201.572 132.754 201.95C132.615 202.328 132.545 202.735 132.545 203.173C132.545 203.61 132.615 204.017 132.754 204.392C132.893 204.767 133.108 205.069 133.397 205.299C133.687 205.53 134.056 205.645 134.505 205.645ZM147.018 201.332L146.114 201.588C146.058 201.437 145.974 201.291 145.863 201.149C145.755 201.004 145.607 200.885 145.42 200.791C145.232 200.697 144.992 200.65 144.7 200.65C144.299 200.65 143.965 200.743 143.698 200.927C143.434 201.109 143.302 201.341 143.302 201.622C143.302 201.872 143.393 202.069 143.575 202.214C143.756 202.359 144.04 202.48 144.427 202.576L145.398 202.815C145.984 202.957 146.42 203.174 146.707 203.467C146.994 203.757 147.137 204.13 147.137 204.588C147.137 204.963 147.029 205.298 146.813 205.593C146.6 205.889 146.302 206.122 145.918 206.292C145.535 206.463 145.089 206.548 144.58 206.548C143.913 206.548 143.36 206.403 142.923 206.113C142.485 205.824 142.208 205.4 142.092 204.843L143.046 204.605C143.137 204.957 143.309 205.221 143.562 205.397C143.817 205.574 144.151 205.662 144.563 205.662C145.032 205.662 145.404 205.562 145.68 205.363C145.958 205.162 146.097 204.92 146.097 204.639C146.097 204.412 146.018 204.221 145.859 204.068C145.7 203.912 145.455 203.795 145.126 203.718L144.035 203.463C143.435 203.321 142.995 203.101 142.714 202.802C142.435 202.501 142.296 202.125 142.296 201.673C142.296 201.304 142.4 200.977 142.607 200.693C142.817 200.409 143.103 200.186 143.464 200.024C143.827 199.862 144.239 199.781 144.7 199.781C145.347 199.781 145.856 199.923 146.225 200.207C146.597 200.491 146.862 200.866 147.018 201.332ZM151.395 206.548C150.765 206.548 150.221 206.409 149.763 206.13C149.309 205.849 148.958 205.457 148.711 204.954C148.466 204.449 148.344 203.86 148.344 203.19C148.344 202.52 148.466 201.929 148.711 201.417C148.958 200.903 149.301 200.503 149.742 200.216C150.185 199.926 150.702 199.781 151.293 199.781C151.634 199.781 151.971 199.838 152.303 199.951C152.635 200.065 152.938 200.25 153.211 200.505C153.483 200.758 153.701 201.093 153.863 201.511C154.025 201.929 154.105 202.443 154.105 203.054V203.48H149.06V202.61H153.083C153.083 202.241 153.009 201.912 152.861 201.622C152.716 201.332 152.509 201.103 152.239 200.936C151.972 200.768 151.657 200.684 151.293 200.684C150.892 200.684 150.546 200.784 150.253 200.983C149.963 201.179 149.74 201.434 149.584 201.75C149.428 202.065 149.35 202.403 149.35 202.764V203.343C149.35 203.838 149.435 204.257 149.605 204.601C149.779 204.941 150.019 205.201 150.326 205.38C150.632 205.557 150.989 205.645 151.395 205.645C151.659 205.645 151.898 205.608 152.111 205.534C152.327 205.457 152.513 205.343 152.669 205.193C152.826 205.039 152.946 204.849 153.032 204.622L154.003 204.895C153.901 205.224 153.729 205.514 153.488 205.764C153.246 206.011 152.948 206.204 152.593 206.343C152.238 206.48 151.838 206.548 151.395 206.548ZM158.38 206.548C157.749 206.548 157.205 206.409 156.748 206.13C156.293 205.849 155.942 205.457 155.695 204.954C155.451 204.449 155.328 203.86 155.328 203.19C155.328 202.52 155.451 201.929 155.695 201.417C155.942 200.903 156.286 200.503 156.726 200.216C157.169 199.926 157.686 199.781 158.277 199.781C158.618 199.781 158.955 199.838 159.287 199.951C159.62 200.065 159.922 200.25 160.195 200.505C160.468 200.758 160.685 201.093 160.847 201.511C161.009 201.929 161.09 202.443 161.09 203.054V203.48H156.044V202.61H160.067C160.067 202.241 159.993 201.912 159.846 201.622C159.701 201.332 159.493 201.103 159.223 200.936C158.956 200.768 158.641 200.684 158.277 200.684C157.877 200.684 157.53 200.784 157.238 200.983C156.948 201.179 156.725 201.434 156.569 201.75C156.412 202.065 156.334 202.403 156.334 202.764V203.343C156.334 203.838 156.419 204.257 156.59 204.601C156.763 204.941 157.003 205.201 157.31 205.38C157.617 205.557 157.973 205.645 158.38 205.645C158.644 205.645 158.882 205.608 159.096 205.534C159.311 205.457 159.498 205.343 159.654 205.193C159.81 205.039 159.931 204.849 160.016 204.622L160.988 204.895C160.885 205.224 160.713 205.514 160.472 205.764C160.23 206.011 159.932 206.204 159.577 206.343C159.222 206.48 158.823 206.548 158.38 206.548ZM167 202.474V206.412H165.995V197.684H167V200.889H167.086C167.239 200.551 167.469 200.282 167.776 200.084C168.086 199.882 168.498 199.781 169.012 199.781C169.458 199.781 169.848 199.87 170.184 200.049C170.519 200.226 170.779 200.497 170.963 200.863C171.151 201.227 171.245 201.69 171.245 202.253V206.412H170.239V202.321C170.239 201.801 170.104 201.399 169.834 201.115C169.567 200.828 169.196 200.684 168.722 200.684C168.392 200.684 168.097 200.754 167.836 200.893C167.577 201.032 167.373 201.235 167.222 201.503C167.074 201.77 167 202.093 167 202.474ZM175.829 206.548C175.198 206.548 174.654 206.409 174.197 206.13C173.742 205.849 173.391 205.457 173.144 204.954C172.9 204.449 172.778 203.86 172.778 203.19C172.778 202.52 172.9 201.929 173.144 201.417C173.391 200.903 173.735 200.503 174.175 200.216C174.619 199.926 175.136 199.781 175.727 199.781C176.067 199.781 176.404 199.838 176.737 199.951C177.069 200.065 177.371 200.25 177.644 200.505C177.917 200.758 178.134 201.093 178.296 201.511C178.458 201.929 178.539 202.443 178.539 203.054V203.48H173.494V202.61H177.516C177.516 202.241 177.442 201.912 177.295 201.622C177.15 201.332 176.942 201.103 176.673 200.936C176.406 200.768 176.09 200.684 175.727 200.684C175.326 200.684 174.979 200.784 174.687 200.983C174.397 201.179 174.174 201.434 174.018 201.75C173.862 202.065 173.783 202.403 173.783 202.764V203.343C173.783 203.838 173.869 204.257 174.039 204.601C174.212 204.941 174.452 205.201 174.759 205.38C175.066 205.557 175.423 205.645 175.829 205.645C176.093 205.645 176.332 205.608 176.545 205.534C176.761 205.457 176.947 205.343 177.103 205.193C177.259 205.039 177.38 204.849 177.465 204.622L178.437 204.895C178.335 205.224 178.163 205.514 177.921 205.764C177.68 206.011 177.381 206.204 177.026 206.343C176.671 206.48 176.272 206.548 175.829 206.548ZM180.069 206.412V199.866H181.04V200.855H181.109C181.228 200.531 181.444 200.268 181.756 200.066C182.069 199.865 182.421 199.764 182.813 199.764C182.887 199.764 182.979 199.765 183.09 199.768C183.201 199.771 183.285 199.775 183.342 199.781V200.804C183.308 200.795 183.229 200.782 183.107 200.765C182.988 200.745 182.862 200.735 182.728 200.735C182.41 200.735 182.126 200.802 181.876 200.936C181.629 201.066 181.433 201.248 181.288 201.481C181.146 201.711 181.075 201.974 181.075 202.27V206.412H180.069ZM187.079 206.548C186.448 206.548 185.904 206.409 185.447 206.13C184.992 205.849 184.641 205.457 184.394 204.954C184.15 204.449 184.028 203.86 184.028 203.19C184.028 202.52 184.15 201.929 184.394 201.417C184.641 200.903 184.985 200.503 185.425 200.216C185.869 199.926 186.386 199.781 186.977 199.781C187.317 199.781 187.654 199.838 187.987 199.951C188.319 200.065 188.621 200.25 188.894 200.505C189.167 200.758 189.384 201.093 189.546 201.511C189.708 201.929 189.789 202.443 189.789 203.054V203.48H184.744V202.61H188.766C188.766 202.241 188.692 201.912 188.545 201.622C188.4 201.332 188.192 201.103 187.923 200.936C187.656 200.768 187.34 200.684 186.977 200.684C186.576 200.684 186.229 200.784 185.937 200.983C185.647 201.179 185.424 201.434 185.268 201.75C185.112 202.065 185.033 202.403 185.033 202.764V203.343C185.033 203.838 185.119 204.257 185.289 204.601C185.462 204.941 185.702 205.201 186.009 205.38C186.316 205.557 186.673 205.645 187.079 205.645C187.343 205.645 187.582 205.608 187.795 205.534C188.011 205.457 188.197 205.343 188.353 205.193C188.509 205.039 188.63 204.849 188.715 204.622L189.687 204.895C189.585 205.224 189.413 205.514 189.171 205.764C188.93 206.011 188.631 206.204 188.276 206.343C187.921 206.48 187.522 206.548 187.079 206.548ZM192.052 206.48C191.842 206.48 191.661 206.405 191.511 206.254C191.36 206.103 191.285 205.923 191.285 205.713C191.285 205.503 191.36 205.322 191.511 205.172C191.661 205.021 191.842 204.946 192.052 204.946C192.262 204.946 192.442 205.021 192.593 205.172C192.744 205.322 192.819 205.503 192.819 205.713C192.819 205.852 192.783 205.98 192.712 206.096C192.644 206.213 192.552 206.307 192.435 206.378C192.322 206.446 192.194 206.48 192.052 206.48Z" fill="#293056"/>
    </svg>