<svg width="119" height="25" viewBox="0 0 119 25" fill="none" xmlns="http://www.w3.org/2000/svg">
<g clip-path="url(#clip0_314_951)">
<path fill-rule="evenodd" clip-rule="evenodd" d="M68.5166 0.0915553C66.1184 0.347596 63.8483 1.30232 61.9881 2.83721C60.1278 4.3721 58.7593 6.41955 58.0524 8.72538C57.3455 11.0312 57.3315 13.4939 58.0119 15.8076C58.6924 18.1214 60.0374 20.1843 61.88 21.7404C63.4358 23.0542 65.2931 23.9616 67.2857 24.3814C69.2782 24.8012 71.3438 24.7201 73.2974 24.1456C75.2509 23.5711 77.0315 22.521 78.4796 21.0894C79.9277 19.6577 80.9981 17.8893 81.5949 15.9424C82.1917 13.9955 82.2963 11.931 81.8994 9.93381C81.5024 7.93658 80.6163 6.06899 79.3203 4.49832C78.0244 2.92764 76.3591 1.70292 74.4736 0.933848C72.5881 0.164778 70.5413 -0.124626 68.5166 0.0915553ZM68.5623 0.366171C71.7257 0.0476184 74.8866 0.99349 77.355 2.99729C79.8234 5.00109 81.3988 7.90007 81.7373 11.0613C82.0758 14.2226 81.1499 17.3894 79.1617 19.8704C77.1735 22.3514 74.2845 23.9451 71.1254 24.3035C69.5484 24.4824 67.9515 24.3477 66.4268 23.9071C64.902 23.4665 63.4794 22.7287 62.2409 21.7362C61.0024 20.7437 59.9723 19.516 59.2101 18.1239C58.4479 16.7317 57.9685 15.2026 57.7995 13.6245C57.6305 12.0463 57.7753 10.4504 58.2255 8.92842C58.6757 7.40646 59.4225 5.98856 60.4228 4.75632C61.4231 3.52408 62.6572 2.50182 64.0541 1.74838C65.451 0.994943 66.9832 0.525194 68.5623 0.366171Z" fill="#ACBB16"/>
<path fill-rule="evenodd" clip-rule="evenodd" d="M69.3404 0.869801C67.6457 0.948408 65.9897 1.40286 64.4923 2.20027C62.9949 2.99767 61.6935 4.11807 60.6824 5.48034C59.6713 6.84261 58.9758 8.41267 58.6462 10.0768C58.3166 11.741 58.3612 13.4576 58.7768 15.1025C59.1923 16.7473 59.9684 18.2791 61.0488 19.5871C62.1293 20.895 63.487 21.9463 65.0238 22.6649C66.5606 23.3835 68.2379 23.7514 69.9344 23.7419C71.6309 23.7325 73.304 23.3459 74.8327 22.6102C76.332 21.866 77.6505 20.8031 78.6961 19.496C79.7417 18.1889 80.4889 16.6691 80.8857 15.0429C81.2824 13.4167 81.319 11.7235 80.9929 10.0818C80.6667 8.44 79.9858 6.88933 78.9977 5.53826C78.8146 5.21788 78.5857 5.08057 78.3569 4.76019C77.252 3.46485 75.8645 2.44047 74.3012 1.76598C72.738 1.09148 71.0408 0.784882 69.3404 0.869801ZM69.615 10.9848C69.6607 11.0763 69.6607 10.939 69.6607 11.1221L69.4319 11.9917L69.203 13.0902C68.8369 12.541 68.5623 11.351 68.425 10.6186C68.2419 9.38288 68.425 8.74211 68.4707 7.59788C68.2877 8.05557 68.1961 8.69634 68.1504 9.24557C67.6927 8.83365 67.6469 8.46749 67.0061 8.23865C67.6469 8.74211 67.9215 9.33711 68.013 10.3898C68.0588 11.6713 68.2419 12.0375 68.4707 13.136C68.0588 12.8613 67.83 12.5867 67.5096 12.2206C65.9077 10.3898 65.4042 11.6256 64.7634 9.1998C64.7177 10.1152 64.9007 10.2067 65.1296 10.8475C64.6261 10.8475 64.1227 10.756 63.7107 11.0306C64.7634 11.1221 65.4957 11.2594 66.1823 11.7629C67.6469 12.8156 69.4777 15.7906 69.5692 17.8502C69.1115 17.6213 68.6538 16.6144 66.5942 15.8363C65.9077 15.6075 65.3584 15.516 64.7634 15.1956C64.443 14.9667 63.7565 14.326 63.7565 13.8225C63.7565 14.4175 64.3057 15.1498 64.5346 15.3329L62.3834 15.4244C63.848 15.5617 64.5346 15.4244 65.8161 15.9279C66.6857 16.294 67.6927 16.9348 68.1961 17.4383C68.5165 17.8044 69.5234 18.6283 69.3404 19.1317L68.4707 21.2829C68.1961 22.0152 68.2419 22.061 68.1504 22.8848C65.5009 22.4768 63.1053 21.0776 61.4484 18.9703C59.7914 16.863 58.9968 14.205 59.2254 11.534C59.4013 9.53876 60.1357 7.6334 61.3443 6.03613C62.553 4.43886 64.187 3.21427 66.0593 2.50259C67.9316 1.79092 69.9666 1.62094 71.931 2.01212C73.8954 2.40329 75.71 3.33981 77.1669 4.71442L77.4415 5.0348C78.8064 6.45357 79.75 8.22385 80.1669 10.1479C80.5838 12.072 80.4576 14.0741 79.8024 15.9305C79.1471 17.787 77.9887 19.4248 76.4564 20.6609C74.9242 21.897 73.0784 22.6828 71.1254 22.9306C70.805 21.5575 70.9423 21.0083 71.3084 19.681C71.7204 18.2621 71.9492 18.1706 72.8646 17.4383C75.0157 15.7906 75.9311 15.7906 77.9907 15.0583C77.2127 15.0125 76.6177 15.1498 75.8854 15.2871C76.2515 14.6463 76.4346 14.5548 76.5261 13.6394C76.343 15.3329 74.375 15.6075 72.59 16.706L71.2627 17.6213C70.4388 15.9736 71.6288 15.4244 72.8646 13.6394C73.185 13.1817 73.6427 12.2663 73.78 11.534C73.963 10.3898 74.2377 10.2525 74.9242 9.61172C74.375 9.7948 74.1919 10.1152 73.8715 10.3898L73.7342 9.56596C73.6884 10.8933 73.6427 12.129 72.3611 13.2733C72.6357 11.5798 72.5442 11.4425 71.995 10.0694C72.5442 11.7629 72.0865 13.3648 70.988 14.6463L70.0269 15.699C69.8896 14.921 69.798 14.0056 69.798 13.1817C69.798 12.7698 69.9354 11.3967 70.21 10.9848C70.3015 10.3898 70.9423 9.33711 71.2169 8.92519L72.2696 7.64365L72.6357 7.27749C72.4069 7.4148 71.8119 7.82672 71.6746 8.0098V7.04865L71.4457 6.31634C71.5373 6.8198 71.6746 7.09442 71.4915 7.73519C71.1254 8.92519 69.7065 10.1152 69.6607 10.8475V9.65749C69.1573 9.84057 68.6538 10.3898 68.9284 11.1221L69.203 10.4813L69.0657 11.1679C69.4777 11.0763 69.4319 11.1221 69.615 10.9848Z" fill="#293737"/>
<path fill-rule="evenodd" clip-rule="evenodd" d="M73.5969 7.50607C74.1004 7.27722 74.6496 6.72799 75.6565 6.68222C74.97 6.95684 74.1461 7.23145 73.7342 7.73491C74.8327 8.87915 75.8854 7.27722 76.2973 6.95684C76.5719 6.72799 76.8465 6.68222 77.1212 6.45338C76.4346 6.22453 75.7023 5.94991 74.8785 6.13299C74.1461 6.2703 73.5054 6.68222 73.5969 7.50607ZM74.1461 16.9803C75.3819 16.843 75.5192 17.0261 76.5262 17.2091C75.5192 17.1634 75.2904 16.9803 74.1461 17.2549C75.0158 18.9484 76.0685 17.5753 77.6704 17.6211C76.7092 16.2022 74.375 15.7445 74.1461 16.9803ZM62.8412 7.41453L62.9785 7.4603L63.0242 7.50607L63.2988 7.59761C63.4819 7.59761 63.5735 7.68915 63.7108 7.73491C64.4888 8.0553 65.2669 8.92491 65.9535 7.59761C65.5415 7.32299 64.6262 7.18568 64.0769 7.18568C64.9465 7.13991 65.2212 7.18568 65.9535 7.36876C65.7704 6.77376 65.1754 6.54491 64.3973 6.68222C63.6192 6.77376 63.3446 7.18568 62.8412 7.41453ZM76.8923 14.3257C77.3042 13.9595 77.35 13.6391 77.945 13.3188C77.7161 13.6849 77.2127 14.0053 77.0754 14.5545C78.54 15.058 78.2196 14.1426 79.3638 12.5407C78.1281 12.4034 76.6177 13.0441 76.8923 14.3257ZM71.0796 5.6753C71.1254 5.30915 70.6219 4.62261 70.4846 4.39376C70.9423 4.75991 70.9881 5.03453 71.2169 5.35491L71.3542 5.53799C71.5373 4.80568 71.2627 4.43953 70.8508 4.02761C70.4846 3.70722 69.9354 3.38684 69.2946 3.43261C70.0727 4.62261 69.5235 5.99568 71.0796 5.6753ZM74.2835 12.1288C74.7411 12.5407 74.5581 12.1745 75.6108 13.273C75.5192 12.9984 74.5581 12.4491 74.1004 12.2661C73.6427 13.5476 75.0158 13.6391 75.5192 13.8222C75.8396 13.9138 76.0227 14.0968 76.2515 14.1884C76.16 12.0372 74.3292 11.7626 74.2835 12.1288ZM69.4777 9.19953C69.5692 8.74184 69.4777 8.32991 69.4777 7.91799L69.5235 8.00953C69.615 8.23838 69.6608 8.46722 69.6608 9.10799C70.4846 8.60453 69.9354 7.00261 68.8369 6.40761C68.9742 7.64338 68.0588 8.92491 69.4777 9.19953ZM61.6054 9.47414C62.2919 9.8403 62.3377 9.88607 62.8412 10.298C63.3446 10.7557 63.9854 10.6184 64.26 10.0234L62.9785 9.47414C63.5277 9.51991 63.8481 9.70299 64.3058 9.8403C64.1227 8.97068 63.07 8.87915 62.2919 9.10799L61.6054 9.47414ZM60.9646 13.3645C61.4681 13.7765 61.5138 13.7765 61.9715 14.4172C62.2462 14.8749 62.7496 15.1038 63.3446 14.6003C63.2073 14.2799 62.5665 13.8222 62.2004 13.6849C62.7954 13.8222 63.07 14.2341 63.4819 14.4172C63.3904 13.273 62.0631 13.0441 60.9646 13.3645ZM66.7315 19.5434C67.1892 18.2161 68.2877 18.7195 68.1504 17.4838C67.6927 17.6211 67.1892 18.0788 67.0519 18.4449C67.2808 17.8041 67.7842 17.5295 68.0131 17.3007C66.7773 16.2022 66.1365 18.7653 66.7315 19.5434ZM67.5554 16.0191C67.6927 15.5157 67.6927 15.3784 67.6927 14.7834C67.83 15.1495 67.7842 15.653 67.6927 16.0649C68.5623 15.9734 68.6538 15.3784 68.2877 14.6461C68.0588 14.0968 67.5554 13.7765 67.1435 13.5018C67.1892 14.0511 67.3265 14.1884 67.1892 14.8291C67.0519 15.4699 67.0519 15.8361 67.5554 16.0191ZM67.2808 11.6253L67.1892 10.0234L67.4638 11.5795C68.1962 11.1218 67.7842 9.65722 66.6858 9.06222C66.7773 10.2065 65.9077 11.488 67.2808 11.6253ZM75.6108 9.8403L77.0296 9.74876C76.5262 9.8403 75.9769 9.79453 75.6108 10.0691C76.0227 11.2591 77.0296 10.1149 77.945 10.0691C77.8535 9.8403 77.945 9.97761 77.7161 9.8403L77.4873 9.65722C76.8465 9.2453 75.8854 9.15376 75.6108 9.8403ZM67.83 7.68915C67.83 7.36876 67.6469 7.13991 67.5554 6.81953L67.7842 7.09415L67.9673 7.50607C67.9673 7.50607 68.1046 7.4603 68.1504 7.18568C68.1962 6.59068 67.3723 5.85838 66.5027 5.76684L66.8688 7.04838C66.9604 7.59761 67.1892 7.73491 67.83 7.68915ZM63.3904 17.8499C63.7108 17.4838 63.7565 17.3007 64.1227 17.0718C64.4888 16.7972 64.7635 16.7515 64.7177 16.1565C64.3973 16.1107 64.3058 16.2938 64.0312 16.4311C64.2142 16.1565 64.3515 16.1107 64.5346 15.9276C63.4819 15.058 63.07 16.843 63.3904 17.8499ZM63.6192 13.0899C64.0312 12.9068 64.1227 12.7238 64.6262 12.6322C65.1296 12.4949 65.4042 12.4949 65.4042 11.8999C64.9008 11.9457 64.855 12.0372 64.4431 12.1745C64.855 11.8999 64.9008 11.9457 65.3585 11.7626C65.1296 10.893 63.8481 11.3049 63.6192 13.0899ZM72.0865 16.3395L72.6358 15.3326C72.4985 15.6988 72.3612 15.9276 72.2696 16.4311C73.3681 16.4311 73.0019 15.8361 73.4138 14.463C72.6815 14.6461 71.7662 15.3784 72.0865 16.3395ZM70.6219 13.868L70.9881 12.7695L70.7592 13.9138C71.8577 14.0511 71.4458 12.8153 71.6288 11.8999C71.0796 12.083 69.8896 13.273 70.6219 13.868ZM72.6358 18.033L72.7273 18.0788L72.8646 18.1245L73.5054 18.4449C73.1392 18.3534 73.0019 18.2618 72.4985 18.2161C72.59 19.3603 73.4138 18.9484 74.4208 19.223C74.3292 18.7653 74.0546 18.4449 73.8258 18.2161C73.5969 17.9872 73.0019 17.6211 72.6358 18.033ZM61.285 11.6253C61.7885 11.5795 61.9715 11.5338 62.4292 11.7168C62.8869 11.8541 63.1615 11.8541 63.2988 11.488C62.9785 11.2591 62.7496 11.3507 62.3835 11.2591L63.3446 11.3507C63.3446 9.97761 61.6512 10.893 61.285 11.6253ZM69.4777 6.2703C69.5692 6.04145 69.3404 5.76684 69.2031 5.44645C69.3404 5.62953 69.5235 5.94991 69.7065 6.08722C69.9354 5.72107 69.5692 5.26338 69.3404 5.12607C69.0658 4.89722 68.7454 4.80568 68.3335 4.75991C68.7912 5.81261 68.7454 6.40761 69.4777 6.2703ZM75.4277 8.46722C75.7938 8.37568 75.9312 8.23838 76.2973 8.23838C76.0227 8.32991 75.6565 8.42145 75.4735 8.60453C75.7023 8.92491 76.0227 9.10799 76.4346 8.74184L77.35 8.19261C76.8465 7.87222 75.6565 7.59761 75.4277 8.46722ZM65.9992 17.9872C66.045 17.6211 66.045 17.438 66.1823 17.1176C66.64 16.2938 66.2738 15.9734 65.9992 16.5684L65.8619 17.0261C65.8619 16.6141 65.9992 16.5226 66.0908 16.2022C64.9923 16.2022 65.3127 17.438 65.9992 17.9872ZM70.3473 10.893H70.9881L70.3931 11.1676C70.7135 11.8999 71.2169 11.3965 71.9492 11.0303L72.1323 10.893C71.8577 10.7557 71.3542 10.3895 70.7135 10.6184L70.4846 10.7557V10.8015L70.4388 10.8472L70.3473 10.893ZM74.5123 11.3507C74.7869 11.2591 75.0158 11.1676 75.3362 11.1676C75.0158 11.2134 74.7411 11.2591 74.5123 11.488C74.9242 12.1745 75.4277 11.5338 75.7023 11.3507L76.1142 11.1676C75.6565 10.893 74.7411 10.5726 74.5123 11.3507ZM69.615 10.9845L69.7981 10.8015V9.61145C69.2946 9.79453 68.7912 10.3438 69.0658 11.0303L69.3404 10.3895L69.2031 11.1218C69.4777 11.0761 69.4319 11.1218 69.615 10.9845ZM73.5054 8.92491L73.3223 8.23838L73.4138 8.37568L73.5969 8.69607L73.7342 8.83338C74.2835 8.14684 73.4138 7.68915 72.59 7.64338L72.6815 7.82645C73.2765 8.74184 72.9104 8.92491 73.5054 8.92491ZM72.9562 6.45338L73.0477 6.40761C73.5054 6.2703 73.4138 5.40068 72.8646 4.94299C72.5442 5.76684 72.3612 6.2703 72.9562 6.45338ZM66.045 13.9138C66.2738 13.6849 66.1823 13.5934 66.5485 13.1815C66.64 13.0441 66.7773 12.9984 66.7773 12.7695C66.6858 12.4491 66.64 12.6322 66.4112 12.7695C66.5485 12.5407 66.6858 12.4491 66.3654 12.4034C66.1823 12.4034 66.045 12.5407 65.9535 12.678C65.7704 13.1357 65.9535 13.5476 66.045 13.9138ZM70.3473 8.37568L70.5761 8.23838L70.7135 8.00953L70.5761 8.46722C71.4458 8.6503 71.1254 7.32299 70.7592 7.09415C70.4388 8.00953 70.21 7.82645 70.3473 8.37568ZM72.9562 11.5795L73.2308 11.2591L73.0935 11.6253C73.6427 11.488 73.78 10.7557 73.4596 10.298L73.4138 10.3438C73.3681 10.5726 73.4138 10.3438 73.3681 10.4353C73.0019 10.8472 72.4527 11.1676 72.9562 11.5795ZM72.9562 13.9138L73.5054 13.7765C73.2308 13.868 73.2308 13.8222 73.0019 14.0511C73.185 14.2799 73.3681 14.3715 73.7342 14.1426L74.2835 13.7765L74.2377 13.6391L74.0088 13.5476L73.5969 13.5018C73.2308 13.5018 73.0935 13.6391 72.9562 13.9138ZM76.8923 15.7903L77.35 15.6988C77.1669 15.7903 77.0754 15.7445 76.9381 15.9734C77.2585 16.3395 77.3958 16.2022 78.0823 15.7445L78.2196 15.6072C77.7619 15.4699 77.1669 15.1495 76.8923 15.7903ZM65.9077 15.4699L66.1365 15.058L66.045 15.5615C66.7773 15.4699 66.5027 15.0122 66.64 14.3257C66.2281 14.4172 65.5415 14.9665 65.9077 15.4699ZM65.1296 15.0122C65.2669 14.8291 65.2212 14.8291 65.2212 14.6003L65.2669 14.7376L65.3127 14.8291L65.4042 14.9665C65.5415 14.3715 65.3585 13.9138 64.855 13.6391C64.9008 14.3257 64.4888 14.8749 65.1296 15.0122ZM74.4665 15.2868L74.5581 15.1495L74.6496 15.3784C75.5192 15.3326 74.8785 14.3257 74.6038 14.1426C74.5581 14.6461 74.2377 15.0122 74.4665 15.2868ZM65.1296 9.56568L65.3127 9.61145H65.4958C65.1754 9.65722 65.2212 9.65722 65.1296 9.8403C65.3585 9.97761 65.4958 10.0691 65.7704 9.88607L66.3654 9.56568C65.9992 9.33684 65.4042 9.10799 65.1296 9.56568ZM73.185 9.88607C73.3681 9.61145 73.1392 9.8403 73.2308 9.70299L73.3681 9.61145C73.2308 9.2453 72.9562 9.15376 72.5442 9.10799C72.8646 9.8403 72.7731 9.88607 73.185 9.88607ZM71.8577 9.88607L71.7204 9.42838L71.995 9.74876C72.0408 9.29107 71.7662 9.10799 71.3085 9.06222C71.4458 9.56568 71.3542 9.8403 71.8577 9.88607ZM0 11.3965V9.10799H1.785V8.69607C1.785 6.2703 2.92923 5.0803 5.26346 5.0803C6.13308 5.0803 6.77385 5.17184 7.18577 5.44645C7.64346 5.6753 7.87231 6.04145 7.87231 6.49915C7.87231 6.91107 7.735 7.32299 7.46038 7.78068C7.00269 7.55184 6.45346 7.41453 5.85846 7.41453C5.355 7.41453 4.98885 7.50607 4.76 7.73491C4.53115 7.96376 4.39385 8.32991 4.39385 8.78761V9.15376L7.18577 9.10799V11.3965L4.62269 11.3507V18.628H1.785V11.3507L0 11.3965ZM16.065 18.628H14.3715C13.4562 18.628 12.9069 18.1245 12.8154 17.1176C12.2204 18.2618 11.2135 18.8111 9.79461 18.8111C8.925 18.8111 8.23846 18.5822 7.64346 18.0788C7.33852 17.8326 7.09649 17.5175 6.93733 17.1594C6.77816 16.8013 6.70644 16.4104 6.72808 16.0191C6.72808 13.868 8.28423 12.7695 11.4423 12.7695H12.7696C12.7696 12.1745 12.6323 11.7626 12.3577 11.488C12.0831 11.2591 11.5796 11.1218 10.9846 11.1218C9.79461 11.1218 8.78769 11.3965 7.91808 11.9457C7.64346 11.5338 7.46038 11.0761 7.46038 10.5726C7.46038 10.0691 7.64346 9.74876 7.96385 9.56568C8.74192 9.10799 9.84038 8.87915 11.2135 8.87915C12.5865 8.87915 13.6392 9.19953 14.4173 9.8403C15.1954 10.5268 15.5615 11.4422 15.5615 12.678V16.3853C15.6073 17.438 15.7446 18.1245 16.065 18.628ZM10.4354 16.6599C11.3508 16.6599 12.1746 16.2938 12.8154 15.4241V14.4172H11.4881C10.0692 14.4172 9.33692 14.8291 9.33692 15.6988C9.33692 15.9734 9.42846 16.2022 9.65731 16.3853C9.88615 16.5684 10.115 16.6599 10.4354 16.6599ZM19.9096 10.7099C20.1385 10.2522 20.5504 9.8403 21.0538 9.47414C21.5573 9.10799 22.1523 8.92491 22.7473 8.92491C23.2508 8.92491 23.6627 9.06222 24.0288 9.33684C24.395 9.65722 24.5323 10.0691 24.5323 10.6184C24.5323 11.2134 24.395 11.7626 24.1662 12.3576C23.6399 11.8861 22.9498 11.6396 22.2438 11.6711C21.2827 11.6711 20.5046 12.0372 19.8638 12.7695V18.628H17.0262V9.10799H18.1704C18.7654 9.10799 19.1773 9.2453 19.4519 9.51991C19.7265 9.74876 19.8638 10.2065 19.9096 10.7099ZM36.9815 16.9803V12.5865C36.9815 11.7168 36.5696 11.2591 35.8373 11.2591C35.4254 11.2591 35.0135 11.3965 34.6015 11.6711C34.2354 11.9457 33.9608 12.2661 33.7777 12.6322V18.628H30.9858V12.5865C30.9858 11.7168 30.5738 11.2591 29.8415 11.2591C29.3838 11.2591 29.0177 11.3965 28.6058 11.6711C28.2396 11.9457 27.965 12.2661 27.7362 12.6322V18.628H24.9442V9.10799H26.0427C26.6377 9.10799 27.0496 9.2453 27.3242 9.47414C27.5531 9.74876 27.6904 10.1149 27.7362 10.6184C28.5142 9.51991 29.5669 8.92491 30.9858 8.92491C32.3131 8.92491 33.1369 9.56568 33.5488 10.8015C33.893 10.2238 34.3827 9.74652 34.969 9.41724C35.5552 9.08796 36.2176 8.91821 36.89 8.92491C37.8054 8.92491 38.5377 9.19953 39.0412 9.79453C39.5446 10.3895 39.7735 11.2591 39.7735 12.3118V18.628H38.7208C37.5308 18.628 36.9815 18.0788 36.9815 16.9803Z" fill="#ACBB16"/>
<path fill-rule="evenodd" clip-rule="evenodd" d="M42.0163 17.4839C41.1467 16.6143 40.689 15.4243 40.689 13.8224C40.689 12.312 41.1467 11.0762 42.0163 10.2066C42.8859 9.29121 44.1217 8.83351 45.6778 8.83351C46.7305 8.83351 47.6001 8.97082 48.2867 9.33698C48.607 9.47428 48.7901 9.61159 48.8817 9.7489C48.9732 9.93198 49.019 10.2066 49.019 10.527C49.019 11.0304 48.8817 11.4881 48.6528 11.9916C47.829 11.4881 46.9593 11.2135 45.9524 11.2135C44.3505 11.2135 43.5724 12.0374 43.5724 13.8224C43.5724 14.6462 43.7555 15.287 44.1674 15.7447C44.5793 16.2024 45.2201 16.4312 46.044 16.4312C46.9593 16.4312 47.9205 16.1566 48.7901 15.5616C49.0647 16.0651 49.202 16.5685 49.202 17.072C49.202 17.3924 49.1563 17.6212 49.019 17.8043C48.9274 17.9416 48.7443 18.1247 48.4697 18.262C47.7832 18.6281 46.9136 18.8112 45.7693 18.8112C44.1674 18.857 42.8859 18.3993 42.0163 17.4839ZM52.8178 10.7101C53.0924 10.2524 53.4586 9.84044 53.962 9.47428C54.4655 9.10813 55.0605 8.92505 55.6555 8.92505C56.159 8.92505 56.6167 9.06236 56.9828 9.33698C57.3032 9.65736 57.4863 10.0693 57.4863 10.6185C57.4863 11.2135 57.3032 11.7627 57.0743 12.3577C56.5481 11.8862 55.858 11.6397 55.152 11.6712C54.1909 11.6712 53.4128 12.0374 52.8178 12.7697V18.6281H49.9343V9.10813H51.0786C51.6736 9.10813 52.0855 9.24544 52.3601 9.52005C52.6347 9.7489 52.772 10.2066 52.8178 10.7101ZM90.257 14.3258L89.067 18.3535H85.1767L82.6136 8.83351H85.7717L86.687 12.6324C87.0532 13.9139 87.1905 15.1497 87.2363 16.2939H87.3278C87.4193 15.1497 87.694 13.8681 88.1059 12.4951L89.2501 8.83351H92.3167L93.4609 12.4951C93.827 13.8681 94.0559 15.1954 94.1474 16.2939H94.1932C94.1932 15.1497 94.3763 13.9139 94.6509 12.5866L95.7951 8.83351H98.9532L96.1155 18.3535H92.5455L91.4013 14.3258L90.852 11.1677H90.8063C90.6232 12.4951 90.4859 13.5477 90.257 14.3258ZM105.452 14.5547V12.2662C104.903 11.3966 104.217 10.9847 103.53 10.9847C102.935 10.9847 102.523 11.2135 102.157 11.6712C101.791 12.1289 101.608 12.7697 101.608 13.5935C101.608 14.4174 101.791 15.0581 102.111 15.5158C102.432 15.9735 102.935 16.2024 103.53 16.2024C103.942 16.2024 104.308 16.0651 104.674 15.6989C104.995 15.3785 105.269 15.0124 105.452 14.5547ZM108.244 6.68236V16.1566C108.244 17.1177 108.382 17.8958 108.656 18.3535H106.917C106.002 18.3535 105.452 17.8501 105.361 16.8431C105.118 17.3754 104.724 17.8243 104.227 18.1337C103.731 18.443 103.154 18.5991 102.569 18.5824C101.425 18.5824 100.464 18.1247 99.777 17.2551C99.0905 16.3854 98.7243 15.1497 98.7243 13.5935C98.7243 12.0374 99.0905 10.7558 99.777 9.88621C100.509 9.06236 101.471 8.60467 102.661 8.60467C103.199 8.59435 103.731 8.72387 104.204 8.98059C104.677 9.2373 105.076 9.61242 105.361 10.0693V5.03467H106.459C107.649 5.03467 108.244 5.5839 108.244 6.68236ZM118.954 8.83351V17.2551C118.954 18.857 118.542 20.1385 117.673 21.0081C116.757 21.8777 115.567 22.2897 113.965 22.2897C112.547 22.2897 111.586 22.1524 111.036 21.7862C110.579 21.4201 110.304 21.0081 110.304 20.4589C110.304 19.7724 110.441 19.2689 110.762 18.9027C111.494 19.5893 112.455 19.8639 113.599 19.8639C114.469 19.8639 115.064 19.7266 115.522 19.3604C115.934 19.0401 116.117 18.4451 116.117 17.6212V16.7058C115.782 17.2134 115.327 17.6298 114.792 17.9174C114.256 18.2051 113.658 18.3549 113.05 18.3535C111.952 18.3535 111.128 18.0331 110.533 17.3466C109.938 16.6601 109.663 15.6531 109.663 14.3258V8.83351H110.807C111.952 8.83351 112.547 9.38275 112.547 10.4812V14.0512C112.547 15.287 113.004 15.9277 113.965 15.9277C114.972 15.9277 115.659 15.5158 116.162 14.6462V8.83351H118.954Z" fill="#293737"/>
</g>
<defs>
<clipPath id="clip0_314_951">
<rect width="119" height="24.7154" fill="white"/>
</clipPath>
</defs>
</svg>
