<svg width="43" height="43" viewBox="0 0 43 43" fill="none" xmlns="http://www.w3.org/2000/svg">
<circle cx="21.5" cy="21.5" r="21.5" fill="#EDEDED"/>
<path d="M26.4659 7.81836H16.9837C16.4987 7.81836 16.1056 8.21146 16.1056 8.69648C16.1056 9.1826 16.4987 9.57681 16.9837 9.57681H26.4659C27.674 9.57681 28.6551 10.5579 28.6551 11.7649V30.2353C28.6551 31.4423 27.674 32.4234 26.4659 32.4234H17.5352C16.3282 32.4234 15.3449 31.4423 15.3449 30.2353V11.6176C15.3449 11.1326 14.9529 10.7384 14.4667 10.7384C13.9806 10.7384 13.5886 11.1326 13.5886 11.6176V30.2353C13.5886 32.4112 15.3581 34.1819 17.5352 34.1819H26.4659C28.6429 34.1819 30.4124 32.4112 30.4124 30.2353V11.7649C30.4124 9.58899 28.6429 7.81836 26.4659 7.81836ZM27.2731 12.2134C27.2731 11.7273 26.8789 11.3342 26.3939 11.3342H17.6072C17.1221 11.3342 16.7279 11.7273 16.7279 12.2134C16.7279 12.6995 17.1221 13.0904 17.6072 13.0904H26.3939C26.8789 13.0904 27.2731 12.6995 27.2731 12.2134Z" fill="#353535"/>
<path d="M26 23L22.5 31.5L21 28M26 23L22 24.6471M26 23L21 28M21 28L17.5 26.5L19.5 25.6765" stroke="#353535" stroke-width="0.75" stroke-linecap="round" stroke-linejoin="round"/>
</svg>
