<svg width="43" height="43" viewBox="0 0 43 43" fill="none" xmlns="http://www.w3.org/2000/svg">
<circle cx="21.5" cy="21.5" r="21.5" fill="#EDEDED"/>
<path d="M29.1581 13.4451H13.7698C13.3647 13.4451 13.038 13.7727 13.038 14.1778C13.038 14.5829 13.3647 14.9086 13.7698 14.9086H29.1581C30.1842 14.9086 31.0193 15.7456 31.0193 16.7717V16.8427H13.7698C13.3647 16.8427 13.038 17.1685 13.038 17.5736C13.038 17.9778 13.3647 18.3054 13.7698 18.3054H31.0193V26.2293C31.0193 27.2545 30.1842 28.0915 29.1581 28.0915H13.8408C12.8147 28.0915 11.9796 27.2545 11.9796 26.2293V16.6988C11.9796 16.2937 11.652 15.9661 11.2478 15.9661C10.8427 15.9661 10.5151 16.2937 10.5151 16.6988V26.2293C10.5151 28.0638 12.0073 29.555 13.8408 29.555H29.1581C30.9917 29.555 32.4847 28.0638 32.4847 26.2293V16.7717C32.4847 14.9372 30.9917 13.4451 29.1581 13.4451ZM28.7309 23.8983C29.135 23.8983 29.4635 23.5708 29.4635 23.1666C29.4635 22.7605 29.135 22.4348 28.7309 22.4348H21.4639C21.0588 22.4348 20.7313 22.7605 20.7313 23.1666C20.7313 23.5708 21.0588 23.8983 21.4639 23.8983H28.7309ZM14.8605 22.0316H17.1306V24.3007H14.8605V22.0316ZM17.8623 25.766C18.2674 25.766 18.595 25.4385 18.595 25.0324V21.2989C18.595 20.8947 18.2674 20.5662 17.8623 20.5662H14.1288C13.7236 20.5662 13.397 20.8947 13.397 21.2989V25.0324C13.397 25.4385 13.7236 25.766 14.1288 25.766H17.8623Z" fill="#353535"/>
</svg>
