<svg width="43" height="43" viewBox="0 0 43 43" fill="none" xmlns="http://www.w3.org/2000/svg">
<circle cx="21.5" cy="21.5" r="21.5" fill="#EDEDED"/>
<path d="M26.4659 7.81824H16.9837C16.4987 7.81824 16.1056 8.21134 16.1056 8.69636C16.1056 9.18248 16.4987 9.57669 16.9837 9.57669H26.4659C27.674 9.57669 28.6551 10.5578 28.6551 11.7648V30.2352C28.6551 31.4422 27.674 32.4233 26.4659 32.4233H17.5352C16.3282 32.4233 15.3449 31.4422 15.3449 30.2352V11.6175C15.3449 11.1325 14.9529 10.7383 14.4667 10.7383C13.9806 10.7383 13.5886 11.1325 13.5886 11.6175V30.2352C13.5886 32.4111 15.3581 34.1817 17.5352 34.1817H26.4659C28.6429 34.1817 30.4124 32.4111 30.4124 30.2352V11.7648C30.4124 9.58887 28.6429 7.81824 26.4659 7.81824ZM27.2731 12.2133C27.2731 11.7271 26.8789 11.334 26.3939 11.334H17.6072C17.1221 11.334 16.7279 11.7271 16.7279 12.2133C16.7279 12.6994 17.1221 13.0903 17.6072 13.0903H26.3939C26.8789 13.0903 27.2731 12.6994 27.2731 12.2133Z" fill="#353535"/>
</svg>
