<svg width="43" height="43" viewBox="0 0 43 43" fill="none" xmlns="http://www.w3.org/2000/svg">
<circle cx="21.5" cy="21.5" r="21.5" fill="#EDEDED"/>
<path d="M11.9998 25.9C11.9998 24.5906 11.9998 23.9359 12.2945 23.455C12.4594 23.1859 12.6856 22.9596 12.9548 22.7947C13.4357 22.5 14.0904 22.5 15.3998 22.5H16.4998C18.3854 22.5 19.3282 22.5 19.914 23.0858C20.4998 23.6716 20.4998 24.6144 20.4998 26.5V27.6C20.4998 28.9094 20.4998 29.5641 20.2051 30.045C20.0402 30.3141 19.8139 30.5404 19.5448 30.7053C19.0638 31 18.4091 31 17.0998 31C15.1357 31 14.1537 31 13.4323 30.5579C13.0286 30.3106 12.6892 29.9712 12.4418 29.5675" stroke="#353535" stroke-width="1.5" stroke-linecap="round"/>
<path d="M32 16.1C32 17.4094 32 18.0641 31.7053 18.545C31.5404 18.8141 31.3141 19.0404 31.045 19.2053C30.5641 19.5 29.9094 19.5 28.6 19.5H27.5C25.6144 19.5 24.6716 19.5 24.0858 18.9142C23.5 18.3284 23.5 17.3856 23.5 15.5V14.4C23.5 13.0906 23.5 12.4359 23.7947 11.955C23.9596 11.6859 24.1859 11.4596 24.455 11.2947C24.9359 11 25.5906 11 26.9 11C28.8641 11 29.8461 11 30.5675 11.4421C30.9712 11.6894 31.3106 12.0288 31.5579 12.4325" stroke="#353535" stroke-width="1.5" stroke-linecap="round"/>
<path d="M26.5 15.25C26.5 14.7346 26.5 14.4769 26.6291 14.2949C26.6747 14.2307 26.7307 14.1747 26.7949 14.1291C26.9769 14 27.2346 14 27.75 14C28.2654 14 28.5231 14 28.7051 14.1291C28.7693 14.1747 28.8253 14.2307 28.8709 14.2949C29 14.4769 29 14.7346 29 15.25C29 15.7654 29 16.0231 28.8709 16.2051C28.8253 16.2693 28.7693 16.3253 28.7051 16.3709C28.5231 16.5 28.2654 16.5 27.75 16.5C27.2346 16.5 26.9769 16.5 26.7949 16.3709C26.7307 16.3253 26.6747 16.2693 26.6291 16.2051C26.5 16.0231 26.5 15.7654 26.5 15.25Z" fill="#353535"/>
<path d="M22.75 31C22.75 31.4142 23.0858 31.75 23.5 31.75C23.9142 31.75 24.25 31.4142 24.25 31H22.75ZM29 21.75H27V23.25H29V21.75ZM22.75 28V31H24.25V28H22.75ZM27 21.75C26.3134 21.75 25.742 21.7491 25.281 21.796C24.8075 21.8441 24.3682 21.9489 23.9722 22.2135L24.8055 23.4607C24.914 23.3882 25.078 23.3244 25.4328 23.2883C25.8002 23.2509 26.2822 23.25 27 23.25V21.75ZM24.25 26C24.25 25.2822 24.2509 24.8002 24.2883 24.4328C24.3244 24.078 24.3882 23.914 24.4607 23.8055L23.2135 22.9722C22.9489 23.3682 22.8441 23.8075 22.796 24.281C22.7491 24.742 22.75 25.3134 22.75 26H24.25ZM23.9722 22.2135C23.6719 22.4141 23.4141 22.6719 23.2135 22.9722L24.4607 23.8055C24.5519 23.669 24.669 23.5519 24.8055 23.4607L23.9722 22.2135Z" fill="#353535"/>
<path d="M32.7498 22.5C32.7498 22.0858 32.414 21.75 31.9998 21.75C31.5856 21.75 31.2498 22.0858 31.2498 22.5H32.7498ZM26.9998 31.75H28.9998V30.25H26.9998V31.75ZM32.7498 26V22.5H31.2498V26H32.7498ZM28.9998 31.75C29.4555 31.75 29.8348 31.7504 30.1452 31.7292C30.4623 31.7076 30.7618 31.661 31.0522 31.5407L30.4782 30.1548C30.401 30.1868 30.2838 30.2163 30.0431 30.2327C29.7956 30.2496 29.476 30.25 28.9998 30.25V31.75ZM31.2498 28C31.2498 28.4762 31.2494 28.7958 31.2325 29.0433C31.2161 29.284 31.1866 29.4012 31.1546 29.4784L32.5405 30.0524C32.6608 29.762 32.7074 29.4625 32.729 29.1454C32.7502 28.835 32.7498 28.4557 32.7498 28H31.2498ZM31.0522 31.5407C31.726 31.2616 32.2614 30.7262 32.5405 30.0524L31.1546 29.4784C31.0278 29.7846 30.7844 30.0279 30.4782 30.1548L31.0522 31.5407Z" fill="#353535"/>
<path d="M11.9998 16.1C11.9998 14.1359 11.9998 13.1539 12.4418 12.4325C12.6892 12.0288 13.0286 11.6894 13.4323 11.4421C14.1537 11 15.1357 11 17.0998 11C18.4091 11 19.0638 11 19.5448 11.2947C19.8139 11.4596 20.0402 11.6859 20.2051 11.955C20.4998 12.4359 20.4998 13.0906 20.4998 14.4V15.5C20.4998 17.3856 20.4998 18.3284 19.914 18.9142C19.3282 19.5 18.3854 19.5 16.4998 19.5H15.3998C14.0904 19.5 13.4357 19.5 12.9548 19.2053C12.6856 19.0404 12.4594 18.8141 12.2945 18.545C11.9998 18.0641 11.9998 17.4094 11.9998 16.1Z" stroke="#353535" stroke-width="1.5"/>
<path d="M14.9998 15.25C14.9998 14.7346 14.9998 14.4769 15.1289 14.2949C15.1744 14.2307 15.2305 14.1747 15.2947 14.1291C15.4766 14 15.7343 14 16.2498 14C16.7652 14 17.0229 14 17.2048 14.1291C17.269 14.1747 17.3251 14.2307 17.3706 14.2949C17.4998 14.4769 17.4998 14.7346 17.4998 15.25C17.4998 15.7654 17.4998 16.0231 17.3706 16.2051C17.3251 16.2693 17.269 16.3253 17.2048 16.3709C17.0229 16.5 16.7652 16.5 16.2498 16.5C15.7343 16.5 15.4766 16.5 15.2947 16.3709C15.2305 16.3253 15.1744 16.2693 15.1289 16.2051C14.9998 16.0231 14.9998 15.7654 14.9998 15.25Z" fill="#353535"/>
<path d="M14.9998 26.75C14.9998 26.2346 14.9998 25.9769 15.1289 25.7949C15.1744 25.7307 15.2305 25.6747 15.2947 25.6291C15.4766 25.5 15.7343 25.5 16.2498 25.5C16.7652 25.5 17.0229 25.5 17.2048 25.6291C17.269 25.6747 17.3251 25.7307 17.3706 25.7949C17.4998 25.9769 17.4998 26.2346 17.4998 26.75C17.4998 27.2654 17.4998 27.5231 17.3706 27.7051C17.3251 27.7693 17.269 27.8253 17.2048 27.8709C17.0229 28 16.7652 28 16.2498 28C15.7343 28 15.4766 28 15.2947 27.8709C15.2305 27.8253 15.1744 27.7693 15.1289 27.7051C14.9998 27.5231 14.9998 27.2654 14.9998 26.75Z" fill="#353535"/>
<path d="M26.0002 26.75C26.0002 26.0478 26.0002 25.6967 26.1687 25.4444C26.2417 25.3352 26.3354 25.2415 26.4446 25.1685C26.6969 25 27.048 25 27.7502 25C28.4524 25 28.8035 25 29.0558 25.1685C29.165 25.2415 29.2587 25.3352 29.3317 25.4444C29.5002 25.6967 29.5002 26.0478 29.5002 26.75C29.5002 27.4522 29.5002 27.8033 29.3317 28.0556C29.2587 28.1648 29.165 28.2585 29.0558 28.3315C28.8035 28.5 28.4524 28.5 27.7502 28.5C27.048 28.5 26.6969 28.5 26.4446 28.3315C26.3354 28.2585 26.2417 28.1648 26.1687 28.0556C26.0002 27.8033 26.0002 27.4522 26.0002 26.75Z" fill="#353535"/>
</svg>
